<svg width="558" height="554" viewBox="0 0 558 554" fill="none" xmlns="http://www.w3.org/2000/svg">
<rect width="558" height="554" rx="50" fill="white"/>
<circle cx="281.5" cy="270.5" r="228.5" fill="#F5F5F5"/>
<path d="M60.5 315.543L63.4031 324.016L63.4775 324.233L63.6906 324.318L71.6527 327.5L63.6906 330.682L63.4775 330.767L63.4031 330.984L60.5 339.457L57.5969 330.984L57.5225 330.767L57.3094 330.682L49.3473 327.5L57.3094 324.318L57.5225 324.233L57.5969 324.016L60.5 315.543Z" stroke="#2D501D"/>
<path d="M234 74L236.971 82.7589L245 86L236.971 89.2411L234 98L231.029 89.2411L223 86L231.029 82.7589L234 74Z" fill="url(#paint0_radial_1_189)"/>
<path d="M482.683 284.47L484.641 287.518C485.182 288.362 486.021 288.971 486.99 289.226L490.494 290.146C491.903 290.516 492.457 292.219 491.534 293.347L489.24 296.151C488.606 296.926 488.285 297.912 488.343 298.913L488.551 302.53C488.634 303.984 487.185 305.037 485.828 304.508L482.452 303.193C481.518 302.829 480.482 302.829 479.548 303.193L476.172 304.508C474.815 305.037 473.366 303.984 473.449 302.53L473.657 298.913C473.715 297.912 473.394 296.926 472.76 296.151L470.466 293.347C469.543 292.219 470.097 290.516 471.506 290.146L475.01 289.226C475.979 288.971 476.818 288.362 477.359 287.518L479.317 284.47C480.104 283.245 481.896 283.245 482.683 284.47Z" stroke="#85B56F" stroke-width="2"/>
<path d="M149 485.364C167.414 478.61 207.384 471.79 219.952 498.532C235.663 531.961 147.48 497.013 211.844 460.545C276.207 424.078 279.248 507.649 252.388 488.909C225.527 470.169 245.799 420.532 298 418" stroke="black" stroke-width="2"/>
<path d="M388 128.273C396.667 132.939 416.2 137.273 425 117.273C436 92.2727 431.5 128.273 454.5 128.273C477.5 128.273 460.5 84.2727 481.5 117.273" stroke="black" stroke-width="2"/>
<circle cx="326" cy="132" r="8" fill="#2D501D"/>
<path fill-rule="evenodd" clip-rule="evenodd" d="M115.309 162.631C115.309 151.585 124.263 142.631 135.309 142.631H270.877C278.335 142.631 285.174 146.781 288.618 153.396L299.952 175.171H406.94C417.985 175.171 426.94 184.125 426.94 195.171V202.704H148.215C138.586 202.704 130.323 209.566 128.555 219.032L115.309 289.94V162.631Z" fill="#2D501D"/>
<path d="M133.312 223.41C135.046 213.906 143.326 207 152.987 207H436.02C448.503 207 457.936 218.31 455.695 230.59L428.688 378.59C426.954 388.094 418.674 395 409.013 395H125.98C113.497 395 104.064 383.69 106.305 371.41L133.312 223.41Z" fill="url(#paint1_linear_1_189)"/>
<circle cx="395.204" cy="371.54" r="56.8289" fill="#2D501D"/>
<path d="M452.033 371.54C452.033 340.154 426.59 314.711 395.204 314.711C363.819 314.711 338.375 340.154 338.375 371.54C338.375 380.101 340.268 388.219 343.658 395.5" stroke="black" stroke-width="2"/>
<path fill-rule="evenodd" clip-rule="evenodd" d="M391.487 399.689C391.487 401.449 392.913 402.876 394.673 402.876C396.433 402.876 397.86 401.449 397.86 399.689V374.196H423.353C425.113 374.196 426.54 372.769 426.54 371.009C426.54 369.249 425.113 367.822 423.353 367.822H397.86V342.329C397.86 340.569 396.433 339.142 394.673 339.142C392.913 339.142 391.487 340.569 391.487 342.329V367.822H365.993C364.233 367.822 362.807 369.249 362.807 371.009C362.807 372.769 364.233 374.196 365.993 374.196H391.487V399.689Z" fill="white"/>
<line x1="138" y1="144" x2="275" y2="144" stroke="black" stroke-width="2"/>
<defs>
<radialGradient id="paint0_radial_1_189" cx="0" cy="0" r="1" gradientUnits="userSpaceOnUse" gradientTransform="translate(234 86) rotate(90) scale(12 11)">
<stop stop-color="#BB4D4D"/>
<stop offset="1" stop-color="#BB4D4D" stop-opacity="0"/>
</radialGradient>
<linearGradient id="paint1_linear_1_189" x1="291.342" y1="207" x2="291.342" y2="395" gradientUnits="userSpaceOnUse">
<stop stop-color="#85B56F"/>
<stop offset="1" stop-color="#2D501D"/>
</linearGradient>
</defs>
</svg>
