<svg width="535" height="547" viewBox="0 0 535 547" fill="none" xmlns="http://www.w3.org/2000/svg">
<rect width="535" height="547" rx="50" fill="white"/>
<circle cx="272.5" cy="273.5" r="228.5" fill="#F5F5F5"/>
<path d="M129 123L133.862 137.233L147 142.5L133.862 147.767L129 162L124.138 147.767L111 142.5L124.138 137.233L129 123Z" fill="url(#paint0_linear_1_61)"/>
<path d="M441.5 248.543L444.403 257.016L444.478 257.233L444.691 257.318L452.653 260.5L444.691 263.682L444.478 263.767L444.403 263.984L441.5 272.457L438.597 263.984L438.522 263.767L438.309 263.682L430.347 260.5L438.309 257.318L438.522 257.233L438.597 257.016L441.5 248.543Z" stroke="#85B56F"/>
<path d="M307 188V158C307 138.67 291.33 123 272 123V123C252.67 123 237 138.67 237 158V188" stroke="black" stroke-width="10"/>
<path fill-rule="evenodd" clip-rule="evenodd" d="M272.5 152C220.861 152 179 193.861 179 245.5V350H366V245.5C366 193.861 324.139 152 272.5 152Z" fill="url(#paint1_linear_1_61)"/>
<rect x="163" y="350" width="218" height="2" rx="1" fill="black"/>
<path fill-rule="evenodd" clip-rule="evenodd" d="M224 360C224 385.405 244.595 406 270 406C295.405 406 316 385.405 316 360H224Z" fill="url(#paint2_linear_1_61)"/>
<circle cx="353.5" cy="208.5" r="27.5" fill="white"/>
<path d="M353.014 222.435C350.994 222.426 349.269 221.893 347.837 220.837C346.405 219.78 345.31 218.241 344.551 216.222C343.793 214.202 343.414 211.768 343.414 208.922C343.414 206.084 343.793 203.659 344.551 201.648C345.318 199.636 346.418 198.102 347.85 197.045C349.29 195.989 351.012 195.46 353.014 195.46C355.017 195.46 356.735 195.993 358.166 197.058C359.598 198.115 360.693 199.649 361.452 201.661C362.219 203.663 362.602 206.084 362.602 208.922C362.602 211.777 362.223 214.214 361.465 216.234C360.706 218.246 359.611 219.784 358.179 220.849C356.747 221.906 355.026 222.435 353.014 222.435ZM353.014 219.021C354.787 219.021 356.172 218.156 357.169 216.426C358.175 214.696 358.678 212.195 358.678 208.922C358.678 206.749 358.448 204.912 357.987 203.412C357.536 201.903 356.884 200.761 356.031 199.986C355.188 199.202 354.182 198.81 353.014 198.81C351.25 198.81 349.865 199.679 348.86 201.418C347.854 203.156 347.347 205.658 347.338 208.922C347.338 211.104 347.564 212.949 348.016 214.457C348.476 215.957 349.128 217.095 349.972 217.871C350.816 218.638 351.83 219.021 353.014 219.021Z" fill="black"/>
<line x1="271" y1="416" x2="271" y2="435" stroke="black" stroke-width="2"/>
<line x1="233.142" y1="409.707" x2="219.707" y2="423.142" stroke="black" stroke-width="2"/>
<line y1="-1" x2="19" y2="-1" transform="matrix(-0.707107 -0.707107 -0.707107 0.707107 321 422.435)" stroke="black" stroke-width="2"/>
<circle cx="137" cy="395" r="9" fill="#85B56F"/>
<path d="M446.832 87C434.039 92.8792 412.291 109.306 427.643 127.982C446.832 151.325 456.168 142.507 453.574 135.244C450.981 127.982 430.236 105.675 416.751 124.35C403.267 143.025 417.27 171.038 422.456 172.594M34 334.445C36.5932 325.799 45.7211 310.271 61.4876 317.326C81.1956 326.145 85.8633 338.595 108.683 317.326C126.939 300.311 143.605 313.695 149.655 322.514M411.565 429.896C406.206 441.827 398.703 464.652 411.565 460.502C427.643 455.315 401.192 430.415 369.037 460.502" stroke="black" stroke-width="2"/>
<defs>
<linearGradient id="paint0_linear_1_61" x1="129" y1="123" x2="129" y2="162" gradientUnits="userSpaceOnUse">
<stop stop-color="#85B56F"/>
<stop offset="1" stop-color="#BB4D4D" stop-opacity="0"/>
</linearGradient>
<linearGradient id="paint1_linear_1_61" x1="272.5" y1="152" x2="272.5" y2="350" gradientUnits="userSpaceOnUse">
<stop stop-color="#85B56F"/>
<stop offset="1" stop-color="#85B56F"/>
</linearGradient>
<linearGradient id="paint2_linear_1_61" x1="270" y1="360" x2="270" y2="406" gradientUnits="userSpaceOnUse">
<stop stop-color="#85B56F"/>
<stop offset="1" stop-color="#2D501D"/>
</linearGradient>
</defs>
</svg>
