<svg xmlns="http://www.w3.org/2000/svg" xmlns:xlink="http://www.w3.org/1999/xlink" width="500" zoomAndPan="magnify" viewBox="0 0 375 374.999991" height="500" preserveAspectRatio="xMidYMid meet" version="1.2"><defs><clipPath id="13ad712af6"><path d="M 113.144531 164.605469 L 127.496094 164.605469 L 127.496094 173.230469 L 113.144531 173.230469 Z M 113.144531 164.605469 "/></clipPath><clipPath id="574176244a"><path d="M 117.457031 164.605469 L 123.171875 164.605469 C 125.554688 164.605469 127.484375 166.535156 127.484375 168.917969 C 127.484375 171.296875 125.554688 173.230469 123.171875 173.230469 L 117.457031 173.230469 C 115.074219 173.230469 113.144531 171.296875 113.144531 168.917969 C 113.144531 166.535156 115.074219 164.605469 117.457031 164.605469 Z M 117.457031 164.605469 "/></clipPath></defs><g id="922f811287"><g clip-rule="nonzero" clip-path="url(#13ad712af6)"><g clip-rule="nonzero" clip-path="url(#574176244a)"><path style=" stroke:none;fill-rule:nonzero;fill:#85b56f;fill-opacity:1;" d="M 113.144531 164.605469 L 127.496094 164.605469 L 127.496094 173.230469 L 113.144531 173.230469 Z M 113.144531 164.605469 "/></g></g><path style=" stroke:none;fill-rule:nonzero;fill:#fff7d6;fill-opacity:1;" d="M 53.832031 201.027344 C 77.859375 174.488281 32.585938 125.054688 43.839844 89.339844 C 58.996094 41.253906 182.28125 0.03125 265.265625 52.375 C 334.757812 96.214844 370.082031 184.519531 328.527344 234.773438 C 318.96875 246.335938 308.136719 249.886719 293.285156 262.371094 C 279.46875 273.984375 277.914062 276.945312 276.917969 278.96875 C 267.09375 298.910156 287.757812 316.410156 283.601562 333.515625 C 277.027344 360.539062 211.320312 374.960938 156.371094 365.8125 C 141.554688 363.347656 66.464844 349.003906 38.847656 289.414062 C 36.710938 284.800781 16.488281 240.265625 35.515625 215.492188 C 42.113281 206.898438 47.421875 208.101562 53.832031 201.027344 "/><path style=" stroke:none;fill-rule:nonzero;fill:#e7f3dd;fill-opacity:1;" d="M 98.046875 254.976562 L 59.824219 254.425781 C 47.53125 254.425781 37.015625 246.40625 34.863281 234.199219 L 23.222656 168.234375 C 21.835938 160.375 27.828125 153.164062 35.746094 153.164062 L 80.105469 153.164062 L 98.046875 254.976562 "/><path style=" stroke:none;fill-rule:nonzero;fill:#e7f3dd;fill-opacity:1;" d="M 87.25 339.832031 L 76.066406 339.832031 L 76.066406 254.304688 L 87.25 254.753906 L 87.25 339.832031 "/><path style=" stroke:none;fill-rule:nonzero;fill:#e7f3dd;fill-opacity:1;" d="M 108.769531 326.523438 L 54.550781 326.523438 C 47.777344 326.523438 42.289062 332.011719 42.289062 338.78125 L 42.289062 340.71875 L 121.027344 340.71875 L 121.027344 338.78125 C 121.027344 332.011719 115.539062 326.523438 108.769531 326.523438 "/><path style=" stroke:none;fill-rule:nonzero;fill:#fff7d6;fill-opacity:1;" d="M 41.613281 204.710938 C 41.320312 204.710938 41.058594 204.5 41.007812 204.203125 L 35.367188 172.179688 C 35.304688 171.84375 35.53125 171.527344 35.867188 171.464844 C 36.203125 171.40625 36.519531 171.632812 36.578125 171.964844 L 42.21875 203.988281 C 42.28125 204.324219 42.054688 204.644531 41.722656 204.703125 C 41.683594 204.707031 41.648438 204.710938 41.613281 204.710938 "/><path style=" stroke:none;fill-rule:nonzero;fill:#85b56f;fill-opacity:1;" d="M 173.121094 304.261719 C 173.03125 304.652344 177.578125 325.457031 177.578125 325.457031 L 167.117188 323.707031 L 163.96875 306.117188 L 173.121094 304.261719 "/><path style=" stroke:none;fill-rule:nonzero;fill:#ffffff;fill-opacity:1;" d="M 172.023438 318.632812 C 172.664062 318.09375 173.582031 317.570312 174.742188 317.519531 C 176.496094 317.445312 178.09375 318.542969 178.820312 320.152344 C 180.636719 324.179688 185.417969 335.398438 186.769531 344.570312 C 187.25 347.8125 184.800781 350.445312 180.988281 348.324219 C 174.734375 344.84375 166.0625 336.851562 161.523438 325.054688 C 161.003906 323.699219 161.1875 322.167969 162.042969 321 C 162.742188 320.042969 163.691406 318.886719 164.789062 317.902344 C 165.84375 316.960938 167.425781 316.945312 168.515625 317.84375 L 169.5 318.652344 C 170.238281 319.253906 171.292969 319.246094 172.023438 318.632812 "/><path style=" stroke:none;fill-rule:nonzero;fill:#000000;fill-opacity:1;" d="M 172.023438 318.632812 L 172.027344 318.632812 Z M 166.679688 317.792969 C 166.148438 317.792969 165.621094 317.984375 165.203125 318.363281 C 164.308594 319.160156 163.414062 320.167969 162.542969 321.363281 C 161.8125 322.359375 161.644531 323.65625 162.097656 324.832031 C 166.527344 336.347656 174.914062 344.238281 181.285156 347.785156 C 182.75 348.601562 184.070312 348.695312 185.007812 348.046875 C 185.929688 347.40625 186.375 346.109375 186.160156 344.660156 C 184.832031 335.648438 180.195312 324.695312 178.261719 320.40625 C 177.621094 318.984375 176.226562 318.0625 174.769531 318.136719 C 173.933594 318.171875 173.144531 318.5 172.421875 319.105469 C 171.464844 319.90625 170.070312 319.917969 169.109375 319.125 L 168.125 318.320312 C 167.699219 317.96875 167.1875 317.792969 166.679688 317.792969 Z M 183.5625 349.707031 C 182.777344 349.707031 181.816406 349.492188 180.6875 348.863281 C 174.125 345.210938 165.496094 337.09375 160.949219 325.273438 C 160.34375 323.707031 160.566406 321.972656 161.546875 320.632812 C 162.46875 319.371094 163.421875 318.300781 164.378906 317.441406 C 165.660156 316.296875 167.566406 316.265625 168.90625 317.367188 L 169.890625 318.175781 C 170.394531 318.585938 171.125 318.582031 171.628906 318.160156 C 172.550781 317.386719 173.617188 316.953125 174.71875 316.90625 C 176.664062 316.835938 178.539062 318.027344 179.382812 319.898438 C 181.339844 324.238281 186.03125 335.320312 187.378906 344.480469 C 187.660156 346.398438 187.019531 348.152344 185.707031 349.0625 C 185.273438 349.363281 184.554688 349.707031 183.5625 349.707031 "/><path style=" stroke:none;fill-rule:nonzero;fill:#000000;fill-opacity:1;" d="M 184.394531 346.054688 C 183.558594 346.054688 174.664062 345.535156 163.933594 324.351562 C 163.78125 324.046875 163.902344 323.675781 164.207031 323.523438 C 164.507812 323.367188 164.878906 323.488281 165.035156 323.792969 C 175.554688 344.570312 184.058594 344.820312 184.390625 344.820312 C 184.425781 344.820312 184.414062 344.820312 184.425781 344.820312 C 184.753906 344.820312 185.027344 345.082031 185.039062 345.414062 C 185.050781 345.753906 184.785156 346.042969 184.445312 346.054688 C 184.433594 346.054688 184.417969 346.054688 184.394531 346.054688 "/><path style=" stroke:none;fill-rule:nonzero;fill:#000000;fill-opacity:1;" d="M 177.695312 334.425781 C 177.449219 334.425781 177.21875 334.28125 177.125 334.039062 C 177 333.722656 177.152344 333.363281 177.46875 333.238281 L 182.429688 331.285156 C 182.746094 331.160156 183.101562 331.316406 183.226562 331.632812 C 183.351562 331.949219 183.199219 332.304688 182.878906 332.429688 L 177.921875 334.386719 C 177.847656 334.414062 177.769531 334.425781 177.695312 334.425781 "/><path style=" stroke:none;fill-rule:nonzero;fill:#000000;fill-opacity:1;" d="M 175.957031 330.632812 C 175.710938 330.632812 175.476562 330.484375 175.382812 330.242188 C 175.261719 329.925781 175.417969 329.566406 175.734375 329.441406 L 181.550781 327.179688 C 181.867188 327.058594 182.222656 327.214844 182.347656 327.535156 C 182.472656 327.847656 182.316406 328.207031 181.996094 328.332031 L 176.179688 330.59375 C 176.105469 330.621094 176.03125 330.632812 175.957031 330.632812 "/><path style=" stroke:none;fill-rule:nonzero;fill:#85b56f;fill-opacity:1;" d="M 128.484375 304.207031 C 128.40625 304.367188 127.828125 306.808594 127.375 310.925781 C 126.617188 317.78125 134.300781 324.128906 134.300781 324.128906 L 116.105469 321.679688 L 116.796875 305.808594 L 128.484375 304.207031 "/><path style=" stroke:none;fill-rule:nonzero;fill:#ffffff;fill-opacity:1;" d="M 120.304688 317.074219 C 121.371094 316.722656 121.125 315.074219 122 314.296875 C 123.316406 313.125 124.964844 313.148438 126.53125 313.941406 C 130.457031 315.917969 141.179688 321.601562 147.953125 327.867188 C 150.351562 330.082031 150.09375 333.683594 145.804688 334.453125 C 138.773438 335.71875 127.046875 335.015625 116.152344 328.730469 C 114.902344 328.007812 114.089844 326.699219 114.027344 325.25 C 113.972656 324.0625 114.027344 320.132812 114.269531 318.667969 C 114.496094 317.269531 115.71875 316.253906 117.125 316.257812 L 118.394531 316.261719 C 119.34375 316.261719 119.398438 317.371094 120.304688 317.074219 "/><path style=" stroke:none;fill-rule:nonzero;fill:#000000;fill-opacity:1;" d="M 120.304688 317.074219 L 120.308594 317.074219 Z M 117.117188 316.875 C 116 316.875 115.054688 317.671875 114.875 318.769531 C 114.644531 320.191406 114.589844 324.078125 114.640625 325.222656 C 114.695312 326.460938 115.375 327.570312 116.460938 328.199219 C 127.089844 334.328125 138.527344 335.136719 145.695312 333.847656 C 147.347656 333.550781 148.433594 332.78125 148.753906 331.679688 C 149.070312 330.59375 148.605469 329.304688 147.535156 328.316406 C 140.882812 322.164062 130.4375 316.597656 126.257812 314.492188 C 125.222656 313.96875 123.71875 313.59375 122.410156 314.757812 C 122.144531 314.992188 122.011719 315.414062 121.867188 315.855469 C 121.652344 316.527344 121.382812 317.367188 120.496094 317.660156 C 119.660156 317.933594 119.175781 317.460938 118.890625 317.175781 C 118.664062 316.953125 118.570312 316.878906 118.390625 316.878906 L 117.125 316.875 C 117.121094 316.875 117.121094 316.875 117.117188 316.875 Z M 139.433594 335.601562 C 132.535156 335.601562 123.953125 333.941406 115.84375 329.261719 C 114.394531 328.425781 113.484375 326.9375 113.410156 325.273438 C 113.355469 324.0625 113.410156 320.089844 113.660156 318.570312 C 113.9375 316.871094 115.390625 315.640625 117.117188 315.640625 C 117.121094 315.640625 117.125 315.640625 117.128906 315.640625 L 118.394531 315.644531 C 119.09375 315.644531 119.492188 316.039062 119.753906 316.296875 C 119.988281 316.527344 119.992188 316.527344 120.109375 316.488281 C 120.375 316.402344 120.496094 316.101562 120.695312 315.480469 C 120.871094 314.925781 121.074219 314.296875 121.589844 313.839844 C 123.011719 312.570312 124.867188 312.410156 126.8125 313.390625 C 131.039062 315.519531 141.601562 321.152344 148.375 327.414062 C 149.785156 328.722656 150.386719 330.488281 149.9375 332.027344 C 149.671875 332.9375 148.792969 334.542969 145.910156 335.0625 C 144.015625 335.402344 141.824219 335.601562 139.433594 335.601562 "/><path style=" stroke:none;fill-rule:nonzero;fill:#000000;fill-opacity:1;" d="M 139.257812 332.421875 C 134.648438 332.421875 127.691406 331.167969 117.589844 326.648438 C 117.277344 326.511719 117.140625 326.144531 117.277344 325.835938 C 117.417969 325.523438 117.78125 325.386719 118.09375 325.523438 C 139.40625 335.0625 146.203125 329.617188 146.269531 329.5625 C 146.527344 329.34375 146.917969 329.375 147.136719 329.628906 C 147.359375 329.886719 147.332031 330.269531 147.078125 330.492188 C 146.921875 330.632812 144.765625 332.421875 139.257812 332.421875 "/><path style=" stroke:none;fill-rule:nonzero;fill:#000000;fill-opacity:1;" d="M 134.1875 325.882812 C 134.085938 325.882812 133.980469 325.859375 133.882812 325.804688 C 133.589844 325.640625 133.484375 325.261719 133.652344 324.964844 L 136.28125 320.300781 C 136.449219 320.003906 136.828125 319.898438 137.121094 320.066406 C 137.417969 320.234375 137.523438 320.609375 137.355469 320.90625 L 134.722656 325.570312 C 134.613281 325.773438 134.402344 325.882812 134.1875 325.882812 "/><path style=" stroke:none;fill-rule:nonzero;fill:#000000;fill-opacity:1;" d="M 130.46875 324.039062 C 130.359375 324.039062 130.246094 324.011719 130.148438 323.949219 C 129.855469 323.773438 129.761719 323.394531 129.941406 323.101562 L 132.90625 318.242188 C 133.082031 317.949219 133.460938 317.859375 133.75 318.035156 C 134.042969 318.214844 134.136719 318.59375 133.957031 318.882812 L 130.996094 323.746094 C 130.875 323.933594 130.675781 324.039062 130.46875 324.039062 "/><path style=" stroke:none;fill-rule:nonzero;fill:#000000;fill-opacity:1;" d="M 79.175781 224.210938 C 79.175781 224.210938 142.878906 221.449219 149.839844 227.910156 C 159.289062 236.671875 175.515625 309.625 175.515625 309.625 L 159.847656 314.011719 C 159.847656 314.011719 136.238281 254.144531 130.390625 254.144531 C 124.539062 254.144531 69.386719 252.175781 69.386719 252.175781 L 79.175781 224.210938 "/><path style=" stroke:none;fill-rule:nonzero;fill:#000000;fill-opacity:1;" d="M 66.644531 222.203125 C 66.644531 222.203125 58.246094 246.84375 64.929688 251.335938 C 71.617188 255.828125 119.804688 255.449219 118.136719 254.886719 C 116.464844 254.324219 113.824219 295.226562 113.824219 310.957031 L 129 311.542969 C 129 311.542969 153.179688 248.285156 150.570312 241.21875 C 145.90625 228.582031 110.015625 225.6875 98.53125 224 C 96.164062 223.652344 66.644531 222.203125 66.644531 222.203125 "/><path style=" stroke:none;fill-rule:nonzero;fill:#fff7d6;fill-opacity:1;" d="M 142.558594 276.15625 C 142.496094 276.15625 142.433594 276.144531 142.371094 276.125 C 142.046875 276.023438 141.867188 275.675781 141.972656 275.351562 C 142.515625 273.648438 143.0625 271.972656 143.589844 270.335938 C 147.832031 257.25 151.492188 245.949219 149.988281 241.414062 C 146.789062 231.769531 122.742188 228.054688 114.839844 226.832031 C 114.503906 226.78125 114.273438 226.464844 114.324219 226.132812 C 114.378906 225.792969 114.691406 225.566406 115.027344 225.617188 C 129.0625 227.785156 148.074219 231.742188 151.15625 241.027344 C 152.789062 245.945312 149.246094 256.875 144.761719 270.714844 C 144.234375 272.351562 143.691406 274.027344 143.144531 275.726562 C 143.0625 275.988281 142.820312 276.15625 142.558594 276.15625 "/><path style=" stroke:none;fill-rule:nonzero;fill:#000000;fill-opacity:1;" d="M 10.976562 125.453125 C 9.324219 124.820312 7.871094 123.707031 6.964844 122.179688 C 5.621094 119.914062 4.914062 116.277344 8.007812 111.058594 C 14.988281 99.269531 26.480469 104.75 30.902344 103.363281 C 40.804688 100.253906 38.5 95.261719 42.546875 90.371094 C 45.574219 86.710938 55.996094 79.78125 71.667969 92.472656 C 71.667969 92.472656 78.683594 101.476562 86.726562 97.984375 C 96.605469 93.691406 116.34375 103.140625 109.992188 117.40625 C 108.160156 121.519531 104.886719 124.695312 100.917969 126.429688 C 100.199219 126.746094 99.410156 127.050781 98.554688 127.332031 C 96.078125 128.144531 94.160156 130.21875 93.523438 132.886719 C 91.449219 141.5625 83.710938 158.335938 55.523438 141.679688 C 53.398438 140.425781 50.867188 140.28125 48.652344 141.253906 C 45.933594 142.453125 42.960938 147.042969 29.890625 145.195312 C 21.496094 144.007812 18.886719 134.859375 16.695312 130.707031 C 14.953125 127.394531 12.421875 126.003906 10.976562 125.453125 "/><path style=" stroke:none;fill-rule:nonzero;fill:#ffffff;fill-opacity:1;" d="M 94.082031 120.25 C 94.484375 120.488281 94.996094 120.320312 95.171875 119.886719 C 96.011719 117.828125 98.515625 114.664062 101.261719 114.03125 C 104.785156 113.21875 108.828125 114.3125 109.710938 117.007812 C 110.484375 119.359375 109.734375 120.777344 112.304688 123.828125 C 112.550781 124.121094 112.339844 124.589844 112.035156 124.816406 L 110.417969 126.179688 C 110.074219 126.4375 109.785156 127.308594 109.742188 127.734375 C 109.613281 129.058594 109.445312 131.871094 108.988281 132.234375 C 108.097656 132.945312 103.644531 132.667969 103.644531 132.667969 L 100.070312 144.9375 C 99.9375 145.402344 100.210938 145.890625 100.679688 146.007812 L 104.929688 147.449219 C 104.929688 147.449219 101.515625 152.230469 90.855469 151.507812 C 84.039062 151.046875 80.507812 148.269531 80.507812 148.269531 C 80.507812 148.269531 92.300781 144.371094 94.089844 128.722656 C 94.128906 128.382812 93.980469 128.039062 93.707031 127.835938 C 92.648438 127.039062 89.800781 124.703125 90.300781 122.332031 C 90.828125 119.816406 92.710938 119.433594 94.082031 120.25 "/><path style=" stroke:none;fill-rule:nonzero;fill:#000000;fill-opacity:1;" d="M 108.554688 131.804688 Z M 81.820312 148.378906 C 83.253906 149.191406 86.320312 150.585938 90.894531 150.894531 C 98.707031 151.421875 102.472656 148.9375 103.820312 147.726562 L 100.5 146.597656 C 100.125 146.496094 99.808594 146.25 99.617188 145.910156 C 99.414062 145.558594 99.367188 145.152344 99.480469 144.765625 L 103.050781 132.496094 C 103.132812 132.21875 103.394531 132.035156 103.679688 132.054688 C 105.667969 132.175781 108.058594 132.09375 108.570312 131.777344 C 108.808594 131.335938 108.988281 129.277344 109.066406 128.390625 C 109.089844 128.125 109.109375 127.882812 109.128906 127.675781 C 109.175781 127.1875 109.496094 126.105469 110.046875 125.6875 L 111.636719 124.347656 C 111.71875 124.285156 111.765625 124.214844 111.785156 124.167969 C 109.945312 121.960938 109.730469 120.503906 109.527344 119.09375 C 109.4375 118.46875 109.351562 117.878906 109.128906 117.199219 C 108.332031 114.78125 104.488281 113.917969 101.398438 114.628906 C 98.9375 115.199219 96.53125 118.183594 95.742188 120.117188 C 95.589844 120.492188 95.285156 120.777344 94.90625 120.902344 C 94.527344 121.03125 94.113281 120.984375 93.765625 120.777344 C 93.21875 120.453125 92.617188 120.390625 92.117188 120.609375 C 91.523438 120.871094 91.101562 121.511719 90.902344 122.460938 C 90.492188 124.410156 92.984375 126.523438 94.074219 127.339844 C 94.527344 127.679688 94.765625 128.234375 94.703125 128.792969 C 93.21875 141.765625 84.875 146.914062 81.820312 148.378906 Z M 93.003906 152.199219 C 92.308594 152.199219 91.578125 152.175781 90.8125 152.125 C 83.886719 151.652344 80.277344 148.871094 80.128906 148.753906 C 79.949219 148.613281 79.863281 148.386719 79.902344 148.164062 C 79.941406 147.941406 80.101562 147.753906 80.316406 147.683594 C 80.429688 147.648438 91.757812 143.699219 93.476562 128.65625 C 93.492188 128.53125 93.4375 128.402344 93.335938 128.324219 C 91.746094 127.132812 89.164062 124.753906 89.699219 122.207031 C 90.058594 120.496094 90.941406 119.777344 91.621094 119.480469 C 92.488281 119.101562 93.5 119.1875 94.398438 119.71875 C 94.445312 119.75 94.488281 119.746094 94.515625 119.734375 C 94.542969 119.726562 94.578125 119.707031 94.597656 119.652344 C 95.484375 117.492188 98.089844 114.128906 101.125 113.429688 C 104.730469 112.601562 109.261719 113.65625 110.296875 116.816406 C 110.554688 117.597656 110.652344 118.265625 110.746094 118.917969 C 110.945312 120.28125 111.117188 121.460938 112.773438 123.429688 C 112.96875 123.660156 113.054688 123.957031 113.019531 124.269531 C 112.976562 124.65625 112.742188 125.054688 112.40625 125.308594 L 110.8125 126.652344 C 110.648438 126.789062 110.394531 127.414062 110.355469 127.792969 C 110.335938 127.996094 110.316406 128.234375 110.292969 128.496094 C 110.0625 131.140625 109.882812 132.3125 109.371094 132.71875 C 108.492188 133.417969 105.539062 133.375 104.097656 133.3125 L 100.664062 145.109375 C 100.636719 145.195312 100.664062 145.265625 100.683594 145.300781 C 100.703125 145.332031 100.746094 145.390625 100.828125 145.410156 C 100.84375 145.414062 100.859375 145.417969 100.875 145.421875 L 105.128906 146.867188 C 105.3125 146.929688 105.453125 147.074219 105.515625 147.261719 C 105.574219 147.449219 105.542969 147.652344 105.429688 147.808594 C 105.292969 148 102.179688 152.199219 93.003906 152.199219 "/><path style=" stroke:none;fill-rule:nonzero;fill:#85b56f;fill-opacity:1;" d="M 96 132.242188 C 92.886719 132.242188 89.96875 130.484375 88.558594 127.558594 L 86.996094 124.308594 C 86.847656 124 86.976562 123.632812 87.28125 123.484375 C 87.589844 123.339844 87.957031 123.464844 88.105469 123.773438 L 89.671875 127.023438 C 91.167969 130.128906 94.660156 131.691406 97.976562 130.726562 L 105.652344 128.503906 C 105.976562 128.40625 106.320312 128.597656 106.414062 128.925781 C 106.507812 129.25 106.320312 129.59375 105.992188 129.6875 L 98.320312 131.910156 C 97.546875 132.132812 96.765625 132.242188 96 132.242188 "/><path style=" stroke:none;fill-rule:nonzero;fill:#fff7d6;fill-opacity:1;" d="M 87.808594 116.128906 C 87.804688 116.128906 87.800781 116.128906 87.792969 116.128906 C 87.453125 116.125 87.183594 115.839844 87.191406 115.5 C 87.199219 115.089844 87.46875 105.367188 92.886719 100.320312 C 95.128906 98.230469 97.929688 97.253906 101.21875 97.417969 C 101.558594 97.433594 101.820312 97.722656 101.804688 98.0625 C 101.789062 98.402344 101.5 98.652344 101.160156 98.648438 C 98.214844 98.503906 95.714844 99.367188 93.726562 101.222656 C 88.683594 105.917969 88.425781 115.429688 88.421875 115.527344 C 88.417969 115.863281 88.140625 116.128906 87.808594 116.128906 "/><path style=" stroke:none;fill-rule:nonzero;fill:#85b56f;fill-opacity:1;" d="M 108.730469 129.0625 C 108.875 127.917969 108.046875 126.871094 106.878906 126.722656 C 105.714844 126.578125 104.652344 127.382812 104.507812 128.527344 C 104.363281 129.671875 105.191406 130.722656 106.355469 130.867188 C 107.523438 131.015625 108.585938 130.207031 108.730469 129.0625 "/><path style=" stroke:none;fill-rule:nonzero;fill:#85b56f;fill-opacity:1;" d="M 93.355469 120.773438 C 93.761719 117.5625 91.703125 114.660156 88.757812 114.285156 C 88.433594 114.246094 87.238281 114.214844 86.921875 114.234375 C 84.367188 114.40625 83.050781 116.566406 82.6875 119.425781 C 82.296875 122.507812 83.472656 125.386719 86.230469 125.933594 C 86.347656 125.957031 87.164062 126.023438 87.28125 126.023438 C 90.511719 126.03125 92.949219 123.980469 93.355469 120.773438 "/><path style=" stroke:none;fill-rule:nonzero;fill:#e7f3dd;fill-opacity:1;" d="M 92.082031 120.667969 C 92.425781 117.449219 90.308594 114.585938 87.355469 114.273438 C 84.40625 113.960938 81.730469 116.3125 81.390625 119.527344 C 81.046875 122.746094 83.160156 125.609375 86.113281 125.921875 C 89.066406 126.238281 91.738281 123.886719 92.082031 120.667969 "/><path style=" stroke:none;fill-rule:nonzero;fill:#ffffff;fill-opacity:1;" d="M 78.570312 149.140625 C 78.570312 149.140625 68.554688 143.355469 61.441406 192.257812 C 61.441406 192.257812 73.636719 218.546875 73.855469 222.242188 C 74.070312 225.9375 106.144531 224.332031 106.144531 224.332031 L 106.878906 168.273438 L 114.359375 167.914062 L 112.757812 154.980469 C 111.761719 151.210938 107.5625 148.5 104.742188 147.492188 C 104.742188 147.492188 101.734375 150.644531 96.6875 151.324219 C 89.191406 152.328125 78.570312 149.140625 78.570312 149.140625 "/><path style=" stroke:none;fill-rule:nonzero;fill:#000000;fill-opacity:1;" d="M 62.078125 192.164062 C 63.210938 194.613281 74.257812 218.550781 74.46875 222.203125 C 74.46875 222.222656 74.746094 223.9375 90.085938 224.054688 C 96.792969 224.109375 103.554688 223.832031 105.535156 223.742188 L 106.261719 168.265625 C 106.265625 167.941406 106.523438 167.675781 106.847656 167.660156 L 113.667969 167.332031 L 112.152344 155.097656 C 111.296875 151.949219 107.863281 149.367188 104.886719 148.207031 C 103.988281 149.03125 101.117188 151.347656 96.769531 151.933594 C 89.230469 152.949219 78.832031 149.863281 78.394531 149.730469 C 78.351562 149.71875 78.3125 149.703125 78.273438 149.679688 C 78.226562 149.65625 77.429688 149.265625 76.125 149.929688 C 72.941406 151.554688 66.890625 159.199219 62.078125 192.164062 Z M 91.746094 225.292969 C 91.191406 225.292969 90.632812 225.292969 90.078125 225.285156 C 85.382812 225.25 81.625 225.066406 78.914062 224.738281 C 75.011719 224.261719 73.3125 223.527344 73.238281 222.277344 C 73.066406 219.34375 64.261719 199.800781 60.882812 192.515625 C 60.832031 192.40625 60.816406 192.285156 60.832031 192.167969 C 65.511719 159.984375 71.484375 150.8125 75.664062 148.78125 C 77.304688 147.988281 78.476562 148.417969 78.796875 148.566406 C 79.570312 148.792969 89.582031 151.652344 96.605469 150.710938 C 101.382812 150.070312 104.265625 147.097656 104.296875 147.070312 C 104.464844 146.890625 104.71875 146.832031 104.949219 146.914062 C 107.539062 147.835938 112.222656 150.546875 113.351562 154.824219 C 113.359375 154.851562 113.367188 154.878906 113.367188 154.90625 L 114.972656 167.839844 C 114.992188 168.011719 114.941406 168.179688 114.832031 168.3125 C 114.722656 168.445312 114.5625 168.523438 114.390625 168.53125 L 107.488281 168.863281 L 106.761719 224.335938 C 106.757812 224.664062 106.5 224.929688 106.175781 224.945312 C 106.101562 224.949219 99.136719 225.292969 91.746094 225.292969 "/><path style=" stroke:none;fill-rule:nonzero;fill:#000000;fill-opacity:1;" d="M 90.539062 185.707031 C 90.316406 185.707031 90.101562 185.589844 89.992188 185.378906 C 89.835938 185.078125 89.949219 184.703125 90.25 184.546875 C 97.816406 180.5625 98.320312 169.335938 98.324219 169.222656 C 98.335938 168.882812 98.628906 168.613281 98.960938 168.632812 C 99.300781 168.644531 99.566406 168.929688 99.554688 169.269531 C 99.535156 169.757812 99.011719 181.324219 90.824219 185.636719 C 90.734375 185.6875 90.636719 185.707031 90.539062 185.707031 "/><path style=" stroke:none;fill-rule:nonzero;fill:#ffffff;fill-opacity:1;" d="M 123.910156 159.570312 C 124.65625 159.152344 131.160156 162.65625 142.855469 156.800781 C 154.550781 150.945312 157.863281 133.265625 157.863281 133.265625 C 157.863281 133.265625 158.730469 124.464844 160.671875 120.523438 C 162.609375 116.582031 162.945312 116.023438 162.945312 116.023438 C 162.945312 116.023438 164.523438 116.867188 164.265625 118.84375 C 164.003906 120.824219 162.648438 124.929688 162.648438 124.929688 C 162.648438 124.929688 166.371094 125.171875 166.617188 129.179688 C 166.902344 133.789062 162.425781 135.496094 162.425781 135.496094 C 162.425781 135.496094 170.105469 176.539062 126.875 176.929688 L 123.910156 159.570312 "/><path style=" stroke:none;fill-rule:nonzero;fill:#000000;fill-opacity:1;" d="M 124.09375 160.152344 Z M 124.648438 160.230469 L 127.390625 176.308594 C 139.945312 176.097656 149.292969 172.359375 155.1875 165.199219 C 164.980469 153.300781 161.851562 135.785156 161.820312 135.605469 C 161.765625 135.316406 161.929688 135.023438 162.207031 134.917969 C 162.371094 134.855469 166.253906 133.304688 166.003906 129.214844 C 165.792969 125.820312 162.734375 125.554688 162.605469 125.546875 C 162.417969 125.53125 162.242188 125.429688 162.140625 125.273438 C 162.03125 125.117188 162.003906 124.917969 162.0625 124.738281 C 162.078125 124.699219 163.402344 120.664062 163.652344 118.765625 C 163.765625 117.902344 163.441406 117.320312 163.136719 116.972656 C 162.824219 117.570312 162.253906 118.703125 161.222656 120.792969 C 159.355469 124.59375 158.484375 133.238281 158.476562 133.324219 C 158.476562 133.34375 158.472656 133.359375 158.46875 133.378906 C 158.332031 134.113281 154.964844 151.429688 143.132812 157.351562 C 133.683594 162.082031 127.597656 160.835938 125 160.300781 C 124.882812 160.28125 124.765625 160.253906 124.648438 160.230469 Z M 126.875 177.546875 C 126.574219 177.546875 126.316406 177.328125 126.265625 177.035156 L 123.304688 159.671875 C 123.261719 159.417969 123.382812 159.160156 123.609375 159.035156 C 123.964844 158.835938 124.390625 158.921875 125.246094 159.097656 C 127.71875 159.601562 133.515625 160.789062 142.582031 156.25 C 153.675781 150.695312 157.105469 133.917969 157.25 133.175781 C 157.320312 132.523438 158.1875 124.171875 160.117188 120.25 C 162.046875 116.332031 162.402344 115.730469 162.417969 115.707031 C 162.585938 115.425781 162.945312 115.328125 163.234375 115.480469 C 163.3125 115.523438 165.1875 116.550781 164.875 118.925781 C 164.671875 120.464844 163.851562 123.171875 163.453125 124.441406 C 164.980469 124.820312 167.042969 126.097656 167.230469 129.140625 C 167.480469 133.210938 164.320312 135.234375 163.109375 135.855469 C 163.542969 138.796875 165.378906 154.746094 156.144531 165.972656 C 149.925781 173.535156 140.078125 177.425781 126.878906 177.546875 C 126.878906 177.546875 126.875 177.546875 126.875 177.546875 "/><path style=" stroke:none;fill-rule:nonzero;fill:#85b56f;fill-opacity:1;" d="M 80.558594 147.402344 C 80.558594 147.402344 70.25 148.035156 65.109375 157.238281 C 59.964844 166.441406 52.554688 185.515625 52.300781 193.070312 C 51.71875 210.253906 69.019531 209.675781 69.019531 209.675781 C 69.019531 209.675781 63.074219 228.730469 55.597656 241.738281 C 49.441406 252.449219 48.03125 275.019531 49.035156 275.660156 C 55.796875 279.996094 66.746094 289.035156 80.566406 289.03125 C 83.117188 289.027344 85.335938 287.261719 85.886719 284.746094 C 88.09375 274.699219 94.164062 245.589844 96.726562 218.535156 C 98.945312 195.109375 87.578125 160.808594 87.183594 157.816406 C 86.230469 150.554688 80.558594 147.402344 80.558594 147.402344 "/><path style=" stroke:none;fill-rule:nonzero;fill:#fff7d6;fill-opacity:1;" d="M 68.773438 210.828125 C 68.65625 210.828125 68.554688 210.820312 68.476562 210.8125 C 68.136719 210.777344 67.890625 210.476562 67.925781 210.136719 C 67.960938 209.796875 68.265625 209.558594 68.601562 209.585938 C 69.210938 209.652344 71.890625 209.324219 73.429688 208.378906 C 81.003906 203.734375 84.449219 191.078125 84.484375 190.949219 C 84.570312 190.621094 84.910156 190.425781 85.238281 190.511719 C 85.566406 190.601562 85.761719 190.9375 85.675781 191.265625 C 85.53125 191.804688 82.070312 204.523438 74.074219 209.429688 C 72.4375 210.433594 69.882812 210.828125 68.773438 210.828125 "/><path style=" stroke:none;fill-rule:nonzero;fill:#fff7d6;fill-opacity:1;" d="M 72.980469 244.84375 C 71.015625 244.84375 68.847656 244.453125 66.480469 243.496094 C 66.164062 243.371094 66.011719 243.011719 66.140625 242.695312 C 66.265625 242.378906 66.625 242.226562 66.941406 242.355469 C 79.328125 247.347656 85.609375 236.101562 85.871094 235.621094 C 86.03125 235.320312 86.40625 235.210938 86.707031 235.375 C 87.003906 235.535156 87.117188 235.910156 86.953125 236.207031 C 86.894531 236.3125 82.132812 244.84375 72.980469 244.84375 "/><path style=" stroke:none;fill-rule:nonzero;fill:#ffffff;fill-opacity:1;" d="M 97.765625 134.90625 C 97.191406 133.773438 94.390625 132.210938 92.226562 132.085938 C 92.140625 132.082031 92.128906 131.957031 92.214844 131.933594 C 93.988281 131.480469 98.460938 130.117188 97.421875 128.140625 C 97.035156 127.414062 93.328125 128.160156 91.8125 128.449219 C 90.296875 128.738281 85.796875 133.082031 84.949219 136.335938 C 84.101562 139.589844 84.160156 145.304688 83.085938 147.132812 C 83.085938 147.132812 60.785156 178.527344 58.71875 185.582031 C 56.648438 192.636719 59.640625 201.5 69.273438 200.636719 C 83.660156 199.347656 85.5625 164.425781 88.070312 149.1875 C 88.070312 149.1875 88.96875 146.097656 89.832031 145.085938 C 90.691406 144.070312 95.320312 141.75 95.355469 139.675781 C 95.382812 138.097656 92.664062 136.472656 91.351562 135.777344 C 91.136719 135.664062 91.207031 135.34375 91.445312 135.332031 C 92.183594 135.289062 93.347656 135.347656 94.511719 135.914062 C 96.441406 136.847656 98.40625 136.167969 97.765625 134.90625 "/><path style=" stroke:none;fill-rule:nonzero;fill:#000000;fill-opacity:1;" d="M 96.328125 128.4375 C 95.667969 128.4375 94.417969 128.574219 92.117188 129.015625 L 91.929688 129.054688 C 90.757812 129.277344 86.363281 133.351562 85.546875 136.492188 C 85.191406 137.847656 84.996094 139.683594 84.808594 141.460938 C 84.542969 143.945312 84.296875 146.289062 83.617188 147.445312 L 83.585938 147.488281 C 83.363281 147.800781 61.324219 178.878906 59.308594 185.753906 C 58.097656 189.878906 58.765625 194.308594 61.007812 197.039062 C 62.871094 199.304688 65.710938 200.339844 69.21875 200.023438 C 80.828125 198.984375 84.097656 174.105469 86.257812 157.644531 C 86.671875 154.496094 87.0625 151.519531 87.460938 149.089844 L 87.480469 149.019531 C 87.574219 148.6875 88.441406 145.769531 89.359375 144.683594 C 89.679688 144.3125 90.3125 143.871094 91.109375 143.3125 C 92.460938 142.367188 94.722656 140.785156 94.742188 139.664062 C 94.753906 138.808594 93.34375 137.527344 91.0625 136.320312 C 90.71875 136.140625 90.542969 135.761719 90.628906 135.382812 C 90.710938 135.007812 91.023438 134.734375 91.410156 134.714844 C 92.246094 134.667969 93.511719 134.738281 94.78125 135.359375 C 95.898438 135.898438 96.933594 135.773438 97.222656 135.480469 C 97.261719 135.4375 97.316406 135.382812 97.21875 135.1875 C 96.785156 134.335938 94.257812 132.820312 92.191406 132.699219 C 91.847656 132.679688 91.574219 132.417969 91.542969 132.074219 C 91.507812 131.734375 91.726562 131.421875 92.058594 131.339844 C 94.699219 130.664062 96.554688 129.75 96.90625 128.957031 C 96.976562 128.800781 96.976562 128.664062 96.910156 128.503906 C 96.808594 128.464844 96.628906 128.4375 96.328125 128.4375 Z M 67.988281 201.3125 C 63.84375 201.3125 61.402344 199.460938 60.054688 197.820312 C 57.5625 194.785156 56.804688 189.914062 58.125 185.40625 C 60.1875 178.375 81.441406 148.382812 82.566406 146.800781 C 83.101562 145.859375 83.347656 143.558594 83.582031 141.332031 C 83.777344 139.511719 83.976562 137.625 84.351562 136.183594 C 85.226562 132.824219 89.851562 128.195312 91.695312 127.84375 L 91.886719 127.808594 C 96.046875 127.007812 97.523438 127.019531 97.964844 127.855469 C 98.242188 128.378906 98.265625 128.933594 98.035156 129.457031 C 97.558594 130.527344 96.027344 131.339844 94.386719 131.921875 C 96.125 132.523438 97.804688 133.617188 98.316406 134.628906 C 98.628906 135.246094 98.550781 135.886719 98.101562 136.34375 C 97.332031 137.125 95.710938 137.179688 94.242188 136.464844 C 93.847656 136.273438 93.449219 136.148438 93.070312 136.066406 C 94.613281 137.058594 95.996094 138.328125 95.972656 139.683594 C 95.945312 141.433594 93.65625 143.035156 91.816406 144.320312 C 91.148438 144.789062 90.515625 145.230469 90.300781 145.484375 C 89.671875 146.222656 88.921875 148.472656 88.671875 149.328125 C 88.277344 151.726562 87.890625 154.679688 87.480469 157.804688 C 85.265625 174.65625 81.921875 200.121094 69.328125 201.25 C 68.863281 201.292969 68.417969 201.3125 67.988281 201.3125 "/><path style=" stroke:none;fill-rule:nonzero;fill:#85b56f;fill-opacity:1;" d="M 121.058594 223.792969 L 113.925781 156.355469 C 113.453125 153.199219 111.757812 150.316406 109.117188 148.550781 C 108.082031 147.863281 106.847656 147.292969 105.398438 147.007812 C 105.398438 147.007812 105.421875 145.703125 104.519531 152.078125 C 104.03125 155.539062 103.519531 220.949219 103.5 223.742188 L 121.058594 223.792969 "/><path style=" stroke:none;fill-rule:nonzero;fill:#fff7d6;fill-opacity:1;" d="M 109.132812 194.183594 C 109.121094 194.183594 109.105469 194.183594 109.089844 194.183594 C 108.75 194.15625 108.496094 193.863281 108.519531 193.523438 C 109.386719 180.988281 108.652344 169.667969 108.644531 169.554688 C 108.621094 169.210938 108.878906 168.921875 109.21875 168.894531 C 109.554688 168.878906 109.851562 169.128906 109.875 169.472656 C 109.882812 169.585938 110.625 180.988281 109.746094 193.609375 C 109.726562 193.933594 109.453125 194.183594 109.132812 194.183594 "/><path style=" stroke:none;fill-rule:nonzero;fill:#85b56f;fill-opacity:1;" d="M 109.117188 148.550781 C 125.070312 163.191406 126.675781 155.773438 135.457031 157.828125 C 139.59375 158.796875 136.9375 163.414062 138.914062 168.644531 C 140.003906 171.519531 142.753906 173.785156 142.105469 175.789062 C 140.582031 180.472656 130.917969 183.609375 122.660156 182.527344 C 120.324219 182.21875 115.917969 180.445312 116.082031 180.640625 L 109.117188 148.550781 "/><path style=" stroke:none;fill-rule:nonzero;fill:#85b56f;fill-opacity:1;" d="M 91.472656 254.695312 L 100.179688 255.078125 C 103.214844 255.210938 106.253906 255.21875 109.289062 255.101562 L 118.148438 254.769531 C 118.148438 254.769531 117.210938 257.066406 115.773438 271.328125 C 115.773438 271.328125 93.378906 273.882812 85.023438 270.941406 C 76.671875 268 91.472656 254.695312 91.472656 254.695312 "/><path style=" stroke:none;fill-rule:nonzero;fill:#ffffff;fill-opacity:1;" d="M 95.25 362.46875 L 65.175781 237.785156 L 35.101562 362.46875 L 27.890625 362.46875 L 60.9375 224.46875 L 69.414062 224.453125 L 102.460938 362.46875 L 95.25 362.46875 "/><path style=" stroke:none;fill-rule:nonzero;fill:#000000;fill-opacity:1;" d="M 95.734375 361.855469 L 101.679688 361.855469 L 68.925781 225.074219 L 61.421875 225.082031 L 28.671875 361.855469 L 34.617188 361.855469 L 65.175781 235.160156 Z M 103.238281 363.085938 L 94.765625 363.085938 L 65.175781 240.414062 L 35.585938 363.085938 L 27.109375 363.085938 L 27.292969 362.324219 L 60.449219 223.851562 L 69.898438 223.839844 L 70.011719 224.3125 L 103.238281 363.085938 "/><path style=" stroke:none;fill-rule:nonzero;fill:#ffffff;fill-opacity:1;" d="M 320.433594 360.402344 L 290.359375 235.71875 L 260.285156 360.402344 L 253.074219 360.402344 L 286.121094 222.398438 L 295.003906 222.386719 L 328.050781 360.402344 L 320.433594 360.402344 "/><path style=" stroke:none;fill-rule:nonzero;fill:#000000;fill-opacity:1;" d="M 320.917969 359.785156 L 327.273438 359.785156 L 294.519531 223.003906 L 286.605469 223.011719 L 253.855469 359.785156 L 259.796875 359.785156 L 290.359375 233.089844 Z M 328.835938 361.015625 L 319.949219 361.015625 L 319.835938 360.542969 L 290.359375 238.34375 L 260.769531 361.015625 L 252.292969 361.015625 L 252.476562 360.257812 L 285.632812 221.78125 L 295.492188 221.769531 L 295.605469 222.242188 L 328.835938 361.015625 "/><path style=" stroke:none;fill-rule:nonzero;fill:#ffffff;fill-opacity:1;" d="M 27.890625 226.863281 L 334.054688 226.863281 L 334.054688 215.589844 L 27.890625 215.589844 L 27.890625 226.863281 "/><path style=" stroke:none;fill-rule:nonzero;fill:#000000;fill-opacity:1;" d="M 28.507812 226.246094 L 333.441406 226.246094 L 333.441406 216.207031 L 28.507812 216.207031 Z M 334.671875 227.480469 L 27.277344 227.480469 L 27.277344 214.972656 L 334.671875 214.972656 L 334.671875 227.480469 "/><path style=" stroke:none;fill-rule:nonzero;fill:#85b56f;fill-opacity:1;" d="M 104.703125 224.832031 C 104.359375 224.832031 104.085938 224.554688 104.085938 224.214844 L 104.085938 217.9375 C 104.085938 217.597656 104.359375 217.320312 104.703125 217.320312 C 105.042969 217.320312 105.316406 217.597656 105.316406 217.9375 L 105.316406 224.214844 C 105.316406 224.554688 105.042969 224.832031 104.703125 224.832031 "/><path style=" stroke:none;fill-rule:nonzero;fill:#e7f3dd;fill-opacity:1;" d="M 294.265625 360.472656 L 283.082031 360.472656 L 283.082031 269.304688 L 294.265625 269.304688 L 294.265625 360.472656 "/><path style=" stroke:none;fill-rule:nonzero;fill:#e7f3dd;fill-opacity:1;" d="M 316.964844 347.164062 L 261.664062 347.164062 C 254.839844 347.164062 249.304688 352.695312 249.304688 359.519531 L 249.304688 361.359375 L 329.324219 361.359375 L 329.324219 359.519531 C 329.324219 352.695312 323.789062 347.164062 316.964844 347.164062 "/><path style=" stroke:none;fill-rule:nonzero;fill:#ffffff;fill-opacity:1;" d="M 239.238281 332.464844 L 236.292969 347.109375 C 236.195312 347.605469 235.730469 347.941406 235.300781 347.832031 L 226.699219 345.644531 C 226.324219 345.550781 226.105469 345.15625 226.1875 344.730469 L 228.664062 331.644531 L 239.238281 332.464844 "/><path style=" stroke:none;fill-rule:nonzero;fill:#000000;fill-opacity:1;" d="M 229.167969 332.300781 L 226.792969 344.84375 C 226.773438 344.957031 226.8125 345.039062 226.847656 345.046875 L 235.453125 347.234375 C 235.492188 347.246094 235.527344 347.21875 235.546875 347.210938 C 235.617188 347.164062 235.671875 347.082031 235.691406 346.988281 L 238.496094 333.027344 Z M 235.46875 348.46875 C 235.363281 348.46875 235.253906 348.457031 235.148438 348.429688 L 226.542969 346.242188 C 225.855469 346.066406 225.4375 345.367188 225.582031 344.617188 L 228.0625 331.53125 C 228.121094 331.222656 228.40625 331.003906 228.714844 331.03125 L 239.285156 331.851562 C 239.460938 331.863281 239.625 331.953125 239.730469 332.09375 C 239.835938 332.234375 239.875 332.414062 239.839844 332.585938 L 236.898438 347.234375 C 236.8125 347.65625 236.558594 348.027344 236.203125 348.25 C 235.976562 348.394531 235.722656 348.46875 235.46875 348.46875 "/><path style=" stroke:none;fill-rule:nonzero;fill:#85b56f;fill-opacity:1;" d="M 239.359375 340.675781 C 239.949219 342.78125 241.1875 348.714844 241.707031 352.285156 C 242.03125 354.523438 240.617188 356.644531 238.449219 357.230469 C 232.316406 358.886719 217.65625 358.816406 205.453125 359.351562 C 204.617188 359.390625 203.078125 358.984375 202.394531 356.960938 C 200.074219 350.101562 212.898438 347.976562 225.574219 341 C 225.824219 340.863281 226.128906 340.875 226.359375 341.042969 C 226.503906 341.144531 226.691406 341.273438 226.910156 341.410156 C 229.113281 342.8125 232.78125 342.816406 235.019531 341.46875 L 237.546875 339.949219 C 238.242188 339.535156 239.140625 339.890625 239.359375 340.675781 "/><path style=" stroke:none;fill-rule:nonzero;fill:#000000;fill-opacity:1;" d="M 225.9375 341.523438 C 225.914062 341.523438 225.894531 341.527344 225.875 341.539062 C 222.003906 343.667969 218.105469 345.351562 214.671875 346.839844 C 206.285156 350.46875 201.609375 352.71875 202.976562 356.761719 C 203.636719 358.71875 205.136719 358.75 205.425781 358.738281 C 208.558594 358.601562 211.886719 358.5 215.105469 358.40625 C 224.296875 358.132812 233.796875 357.851562 238.285156 356.636719 C 240.167969 356.125 241.375 354.296875 241.097656 352.375 C 240.597656 348.949219 239.359375 342.972656 238.765625 340.839844 C 238.714844 340.652344 238.582031 340.503906 238.402344 340.433594 C 238.226562 340.363281 238.03125 340.378906 237.867188 340.476562 L 235.335938 342 C 232.886719 343.472656 228.957031 343.441406 226.578125 341.929688 C 226.347656 341.785156 226.152344 341.652344 226 341.542969 C 225.984375 341.527344 225.960938 341.523438 225.9375 341.523438 Z M 205.347656 359.972656 C 204.125 359.972656 202.515625 359.242188 201.8125 357.15625 C 200.011719 351.839844 206.265625 349.136719 214.183594 345.707031 C 217.59375 344.234375 221.457031 342.5625 225.277344 340.460938 C 225.738281 340.207031 226.289062 340.238281 226.714844 340.539062 C 226.855469 340.636719 227.03125 340.757812 227.242188 340.890625 C 229.226562 342.15625 232.644531 342.175781 234.703125 340.941406 L 237.230469 339.421875 C 237.730469 339.125 238.320312 339.074219 238.859375 339.289062 C 239.394531 339.503906 239.792969 339.945312 239.949219 340.507812 C 240.5625 342.695312 241.796875 348.636719 242.316406 352.195312 C 242.683594 354.734375 241.089844 357.152344 238.609375 357.824219 C 233.976562 359.078125 224.828125 359.351562 215.144531 359.636719 C 211.929688 359.734375 208.601562 359.832031 205.484375 359.96875 C 205.4375 359.972656 205.394531 359.972656 205.347656 359.972656 "/><path style=" stroke:none;fill-rule:nonzero;fill:#ffffff;fill-opacity:1;" d="M 242.078125 353.902344 C 242.085938 353.964844 242.097656 354.007812 242.097656 354.027344 C 242.425781 356.265625 240.296875 357.644531 238.257812 358.597656 C 232.21875 361.429688 207.820312 359.808594 206.878906 359.742188 C 206.863281 359.742188 206.847656 359.742188 206.828125 359.742188 C 206.523438 359.746094 203.425781 359.746094 202.535156 357.820312 C 202.421875 357.582031 202.355469 357.25 202.3125 356.933594 C 202.246094 356.417969 202.28125 355.894531 202.394531 355.390625 C 202.484375 354.976562 202.894531 354.71875 203.300781 354.824219 C 207.828125 355.980469 218.449219 356.734375 228.96875 355.203125 C 232.847656 354.636719 239.042969 352.898438 240.671875 351.925781 C 241.117188 351.660156 241.683594 351.917969 241.785156 352.425781 C 241.871094 352.851562 241.972656 353.371094 242.078125 353.902344 "/><path style=" stroke:none;fill-rule:nonzero;fill:#000000;fill-opacity:1;" d="M 206.824219 359.125 C 206.863281 359.125 206.886719 359.125 206.917969 359.128906 C 207.945312 359.195312 232.113281 360.800781 237.996094 358.039062 C 240.628906 356.804688 241.703125 355.597656 241.488281 354.113281 L 241.179688 352.546875 C 241.167969 352.488281 241.128906 352.457031 241.101562 352.445312 C 241.066406 352.429688 241.027344 352.433594 240.988281 352.453125 C 239.28125 353.472656 233.039062 355.230469 229.058594 355.808594 C 218.976562 357.28125 208.183594 356.707031 203.148438 355.417969 C 203.117188 355.410156 203.085938 355.414062 203.058594 355.433594 C 203.039062 355.445312 203.007812 355.472656 202.996094 355.523438 C 202.890625 355.984375 202.867188 356.429688 202.925781 356.851562 C 202.980469 357.273438 203.054688 357.480469 203.09375 357.5625 C 203.832031 359.152344 206.699219 359.128906 206.820312 359.125 C 206.820312 359.125 206.824219 359.125 206.824219 359.125 Z M 222.242188 360.890625 C 215.089844 360.890625 208.195312 360.449219 206.839844 360.359375 C 206.453125 360.367188 203.03125 360.351562 201.976562 358.082031 C 201.851562 357.816406 201.761719 357.464844 201.703125 357.011719 C 201.628906 356.449219 201.65625 355.855469 201.792969 355.253906 C 201.875 354.886719 202.09375 354.578125 202.414062 354.382812 C 202.726562 354.1875 203.097656 354.136719 203.453125 354.226562 C 207.378906 355.226562 217.75 356.214844 228.878906 354.589844 C 232.667969 354.039062 238.78125 352.335938 240.355469 351.394531 C 240.734375 351.171875 241.203125 351.140625 241.601562 351.320312 C 242.007812 351.5 242.304688 351.871094 242.390625 352.308594 L 242.679688 353.785156 C 242.695312 353.863281 242.707031 353.914062 242.707031 353.941406 C 243.105469 356.667969 240.507812 358.222656 238.523438 359.15625 C 235.617188 360.519531 228.820312 360.890625 222.242188 360.890625 "/><path style=" stroke:none;fill-rule:nonzero;fill:#000000;fill-opacity:1;" d="M 224.707031 347.160156 C 224.574219 347.160156 224.445312 347.121094 224.332031 347.035156 L 220.632812 344.21875 C 220.359375 344.011719 220.308594 343.625 220.515625 343.355469 C 220.71875 343.085938 221.105469 343.03125 221.378906 343.238281 L 225.078125 346.054688 C 225.351562 346.261719 225.402344 346.648438 225.195312 346.917969 C 225.074219 347.078125 224.890625 347.160156 224.707031 347.160156 "/><path style=" stroke:none;fill-rule:nonzero;fill:#000000;fill-opacity:1;" d="M 219.789062 349.175781 C 219.660156 349.175781 219.53125 349.132812 219.417969 349.050781 L 216.179688 346.621094 C 215.910156 346.417969 215.855469 346.03125 216.058594 345.761719 C 216.261719 345.488281 216.648438 345.433594 216.917969 345.636719 L 220.15625 348.066406 C 220.429688 348.269531 220.484375 348.65625 220.28125 348.925781 C 220.160156 349.089844 219.976562 349.175781 219.789062 349.175781 "/><path style=" stroke:none;fill-rule:nonzero;fill:#ffffff;fill-opacity:1;" d="M 266.976562 319.902344 L 274.226562 331.808594 L 265.941406 336.195312 L 258.484375 325.542969 L 266.976562 319.902344 "/><path style=" stroke:none;fill-rule:nonzero;fill:#000000;fill-opacity:1;" d="M 259.351562 325.707031 L 266.132812 335.394531 L 273.359375 331.570312 L 266.785156 320.769531 Z M 265.941406 336.808594 C 265.746094 336.808594 265.554688 336.714844 265.4375 336.546875 L 257.980469 325.894531 C 257.886719 325.757812 257.847656 325.589844 257.878906 325.429688 C 257.910156 325.265625 258.003906 325.121094 258.144531 325.027344 L 266.636719 319.390625 C 266.777344 319.296875 266.949219 319.265625 267.113281 319.300781 C 267.273438 319.335938 267.417969 319.441406 267.503906 319.582031 L 274.753906 331.488281 C 274.839844 331.632812 274.867188 331.808594 274.820312 331.972656 C 274.773438 332.136719 274.664062 332.273438 274.515625 332.351562 L 266.230469 336.738281 C 266.136719 336.789062 266.039062 336.808594 265.941406 336.808594 "/><path style=" stroke:none;fill-rule:nonzero;fill:#85b56f;fill-opacity:1;" d="M 265.941406 336.195312 L 273.179688 329.851562 L 284.402344 336.78125 C 286.074219 337.828125 286.785156 340.132812 285.960938 341.929688 C 284.882812 344.277344 283.132812 347.558594 280.648438 350.605469 C 275.964844 356.351562 273.605469 365.644531 266.769531 366.269531 C 259.933594 366.898438 260.140625 366.480469 258.691406 364.808594 C 257.242188 363.136719 259.933594 356.246094 261.796875 351.652344 C 263.320312 347.898438 265.941406 336.195312 265.941406 336.195312 "/><path style=" stroke:none;fill-rule:nonzero;fill:#000000;fill-opacity:1;" d="M 266.5 336.527344 C 266.136719 338.125 263.804688 348.347656 262.371094 351.882812 C 261.261719 354.613281 257.886719 362.9375 259.15625 364.402344 C 259.261719 364.523438 259.355469 364.640625 259.449219 364.746094 C 260.46875 365.957031 260.679688 366.210938 266.714844 365.65625 C 271.074219 365.257812 273.542969 360.960938 276.160156 356.414062 C 277.390625 354.277344 278.660156 352.066406 280.171875 350.214844 C 282.644531 347.179688 284.378906 343.898438 285.398438 341.675781 C 286.09375 340.160156 285.5 338.199219 284.074219 337.304688 L 273.242188 330.613281 Z M 262.394531 367.164062 C 260.101562 367.164062 259.476562 366.691406 258.507812 365.539062 C 258.417969 365.4375 258.328125 365.328125 258.226562 365.210938 C 256.757812 363.523438 258.363281 358.476562 261.226562 351.417969 C 262.714844 347.753906 265.3125 336.175781 265.339844 336.058594 L 265.386719 335.863281 L 273.113281 329.085938 L 284.726562 336.257812 C 286.660156 337.472656 287.460938 340.132812 286.519531 342.1875 C 285.46875 344.476562 283.679688 347.859375 281.125 350.996094 C 279.679688 352.769531 278.433594 354.933594 277.230469 357.027344 C 274.570312 361.648438 271.824219 366.425781 266.828125 366.882812 C 264.863281 367.0625 263.453125 367.164062 262.394531 367.164062 "/><path style=" stroke:none;fill-rule:nonzero;fill:#000000;fill-opacity:1;" d="M 268.632812 346.679688 L 263.507812 346.679688 C 263.167969 346.679688 262.890625 346.402344 262.890625 346.0625 C 262.890625 345.722656 263.167969 345.445312 263.507812 345.445312 L 268.632812 345.445312 C 268.972656 345.445312 269.25 345.722656 269.25 346.0625 C 269.25 346.402344 268.972656 346.679688 268.632812 346.679688 "/><path style=" stroke:none;fill-rule:nonzero;fill:#000000;fill-opacity:1;" d="M 267.820312 351.027344 L 262.691406 351.027344 C 262.351562 351.027344 262.074219 350.75 262.074219 350.410156 C 262.074219 350.070312 262.351562 349.792969 262.691406 349.792969 L 267.820312 349.792969 C 268.160156 349.792969 268.433594 350.070312 268.433594 350.410156 C 268.433594 350.75 268.160156 351.027344 267.820312 351.027344 "/><path style=" stroke:none;fill-rule:nonzero;fill:#ffffff;fill-opacity:1;" d="M 259.933594 365.957031 C 259.933594 365.957031 265.839844 366.269531 269.253906 361.882812 C 272.675781 357.5 284.324219 336.664062 284.324219 336.664062 L 286.542969 338.074219 C 287.667969 338.785156 288.054688 340.253906 287.4375 341.4375 C 284.640625 346.789062 276.980469 360.773438 271.121094 365.175781 C 263.816406 370.65625 259.933594 365.957031 259.933594 365.957031 "/><path style=" stroke:none;fill-rule:nonzero;fill:#000000;fill-opacity:1;" d="M 261.605469 366.5 C 263.164062 367.371094 266.222656 368.082031 270.75 364.679688 C 276.460938 360.390625 283.941406 346.796875 286.890625 341.152344 C 287.359375 340.257812 287.0625 339.132812 286.214844 338.59375 L 284.542969 337.535156 C 282.613281 340.96875 272.875 358.242188 269.742188 362.261719 C 267.296875 365.402344 263.710938 366.269531 261.605469 366.5 Z M 264.492188 368.433594 C 261.238281 368.433594 259.488281 366.382812 259.457031 366.347656 C 259.304688 366.160156 259.273438 365.898438 259.386719 365.679688 C 259.496094 365.464844 259.722656 365.335938 259.964844 365.34375 C 260.023438 365.34375 265.597656 365.578125 268.769531 361.503906 C 272.121094 357.207031 283.671875 336.570312 283.785156 336.363281 C 283.871094 336.214844 284.007812 336.109375 284.171875 336.066406 C 284.335938 336.023438 284.511719 336.050781 284.65625 336.144531 L 286.875 337.550781 C 288.257812 338.433594 288.746094 340.265625 287.984375 341.722656 C 284.992188 347.441406 277.402344 361.226562 271.492188 365.667969 C 268.695312 367.761719 266.351562 368.433594 264.492188 368.433594 "/><path style=" stroke:none;fill-rule:nonzero;fill:#85b56f;fill-opacity:1;" d="M 259.039062 238.96875 C 259.039062 238.96875 226.21875 252.300781 214.109375 266.957031 C 202.535156 280.957031 254.652344 331.808594 254.652344 331.808594 C 254.71875 332.050781 272.363281 322.089844 272.363281 321.78125 L 258.847656 292.332031 C 253.511719 280.84375 242.84375 274.28125 247.195312 270.246094 C 251.15625 266.570312 273.164062 268.46875 284.460938 268.078125 C 304.53125 267.378906 304.335938 238.15625 304.335938 238.15625 L 259.039062 238.96875 "/><path style=" stroke:none;fill-rule:nonzero;fill:#85b56f;fill-opacity:1;" d="M 231.078125 275.273438 C 228.242188 285.859375 225.550781 317.707031 224.929688 335.523438 C 224.921875 335.769531 242.988281 335.941406 243.027344 335.617188 C 243.210938 334.054688 256.566406 285.816406 264.027344 273.0625 C 267.992188 266.289062 293.550781 268.226562 299.253906 267.097656 C 314.476562 264.074219 313.480469 233.371094 313.480469 233.371094 L 242.203125 261.808594 C 236.109375 262.734375 232.683594 269.273438 231.078125 275.273438 "/><path style=" stroke:none;fill-rule:nonzero;fill:#fff7d6;fill-opacity:1;" d="M 246.03125 323.496094 C 245.851562 323.496094 245.671875 323.417969 245.550781 323.265625 L 231.257812 305.40625 C 231.046875 305.140625 231.089844 304.753906 231.351562 304.539062 C 231.621094 304.328125 232.007812 304.371094 232.222656 304.636719 L 246.511719 322.492188 C 246.722656 322.757812 246.683594 323.148438 246.414062 323.359375 C 246.300781 323.449219 246.167969 323.496094 246.03125 323.496094 "/><path style=" stroke:none;fill-rule:nonzero;fill:#e7f3dd;fill-opacity:1;" d="M 224.910156 199.890625 L 257.78125 199.890625 L 245.386719 153.796875 L 212.515625 153.796875 L 224.910156 199.890625 "/><path style=" stroke:none;fill-rule:nonzero;fill:#000000;fill-opacity:1;" d="M 225.382812 199.277344 L 256.980469 199.277344 L 244.914062 154.414062 L 213.320312 154.414062 Z M 257.78125 200.507812 L 224.910156 200.507812 C 224.632812 200.507812 224.386719 200.320312 224.316406 200.050781 L 211.921875 153.957031 C 211.871094 153.773438 211.910156 153.574219 212.027344 153.421875 C 212.144531 153.269531 212.324219 153.179688 212.515625 153.179688 L 245.386719 153.179688 C 245.667969 153.179688 245.910156 153.367188 245.980469 153.636719 L 258.375 199.730469 C 258.425781 199.917969 258.386719 200.113281 258.273438 200.265625 C 258.15625 200.417969 257.972656 200.507812 257.78125 200.507812 "/><path style=" stroke:none;fill-rule:nonzero;fill:#85b56f;fill-opacity:1;" d="M 225.066406 156.136719 L 233.5 156.136719 C 234.253906 156.136719 234.859375 155.328125 234.648438 154.613281 L 233.738281 151.582031 C 233.621094 151.195312 233.28125 150.941406 232.871094 150.941406 L 224.433594 150.941406 C 223.683594 150.941406 223.074219 151.75 223.289062 152.464844 L 224.199219 155.496094 C 224.316406 155.886719 224.65625 156.136719 225.066406 156.136719 "/><path style=" stroke:none;fill-rule:nonzero;fill:#ffffff;fill-opacity:1;" d="M 242.941406 164.019531 L 223.425781 163.992188 C 223.085938 163.992188 222.8125 163.714844 222.8125 163.375 C 222.8125 163.035156 223.089844 162.757812 223.425781 162.757812 C 223.429688 162.757812 223.429688 162.757812 223.429688 162.757812 L 242.941406 162.785156 C 243.285156 162.785156 243.558594 163.0625 243.558594 163.40625 C 243.558594 163.742188 243.28125 164.019531 242.941406 164.019531 "/><path style=" stroke:none;fill-rule:nonzero;fill:#ffffff;fill-opacity:1;" d="M 226.757812 171.285156 C 226.417969 171.285156 226.140625 171.011719 226.140625 170.667969 C 226.140625 170.328125 226.417969 170.054688 226.757812 170.054688 L 239.425781 170.046875 C 239.765625 170.046875 240.042969 170.324219 240.042969 170.664062 C 240.042969 171.003906 239.765625 171.28125 239.425781 171.28125 L 226.757812 171.285156 "/><path style=" stroke:none;fill-rule:nonzero;fill:#ffffff;fill-opacity:1;" d="M 246.664062 178.671875 L 228.476562 178.648438 C 228.136719 178.648438 227.863281 178.371094 227.863281 178.03125 C 227.863281 177.691406 228.136719 177.414062 228.476562 177.414062 L 246.667969 177.441406 C 247.003906 177.441406 247.28125 177.71875 247.28125 178.058594 C 247.28125 178.398438 247.003906 178.671875 246.664062 178.671875 "/><path style=" stroke:none;fill-rule:nonzero;fill:#ffffff;fill-opacity:1;" d="M 249.058594 186.027344 L 236.355469 186.011719 C 236.011719 186.007812 235.738281 185.734375 235.738281 185.394531 C 235.738281 185.050781 236.011719 184.777344 236.355469 184.777344 L 249.058594 184.796875 C 249.398438 184.796875 249.675781 185.074219 249.675781 185.410156 C 249.675781 185.753906 249.398438 186.027344 249.058594 186.027344 "/><path style=" stroke:none;fill-rule:nonzero;fill:#ffffff;fill-opacity:1;" d="M 318.046875 184.75 C 318.046875 184.75 317.4375 160.25 303.015625 155.496094 C 301.789062 155.089844 300.507812 154.890625 299.214844 154.84375 L 286.492188 154.363281 C 282.71875 154.332031 279.589844 155.242188 275.550781 156.722656 C 272.171875 157.957031 268.414062 160.257812 266.21875 162.25 C 256.542969 171.03125 256.445312 200.511719 248.074219 199.8125 C 245.265625 199.582031 240.5625 194.890625 235.90625 189.15625 C 232.179688 184.558594 225.757812 178.917969 225.757812 178.917969 L 214.574219 184.558594 C 217.234375 189.0625 219.628906 193.726562 221.585938 198.582031 C 225.675781 208.722656 232.394531 217.238281 240.804688 224.507812 C 243.601562 226.925781 247.558594 227.421875 250.863281 225.773438 C 256.226562 223.105469 264.265625 218.800781 269.257812 214.738281 C 271.097656 221.078125 269.457031 227.992188 264.933594 232.882812 C 263.574219 234.347656 262.105469 235.695312 260.554688 236.792969 C 259.03125 237.875 258.671875 240.011719 259.714844 241.566406 C 261.402344 244.074219 264.769531 246.953125 271.199219 246.28125 C 279.644531 245.390625 303.691406 245.488281 314.308594 245.578125 C 317.125 245.601562 319.402344 243.273438 319.335938 240.429688 L 318.046875 184.75 "/><path style=" stroke:none;fill-rule:nonzero;fill:#000000;fill-opacity:1;" d="M 269.257812 214.121094 C 269.320312 214.121094 269.382812 214.132812 269.441406 214.152344 C 269.640625 214.210938 269.792969 214.367188 269.847656 214.566406 C 271.742188 221.101562 270.03125 228.277344 265.386719 233.300781 C 263.914062 234.890625 262.40625 236.234375 260.910156 237.296875 C 259.667969 238.175781 259.363281 239.941406 260.226562 241.222656 C 261.832031 243.605469 265.019531 246.308594 271.136719 245.664062 C 279.664062 244.769531 304.171875 244.878906 314.3125 244.960938 C 314.324219 244.960938 314.339844 244.960938 314.351562 244.960938 C 315.523438 244.960938 316.621094 244.503906 317.445312 243.664062 C 318.292969 242.804688 318.746094 241.660156 318.71875 240.445312 L 317.429688 184.765625 C 317.421875 184.5 316.652344 160.644531 302.820312 156.082031 C 301.71875 155.71875 300.496094 155.507812 299.191406 155.457031 L 286.472656 154.976562 C 286.410156 154.976562 286.351562 154.976562 286.292969 154.976562 C 282.789062 154.976562 279.871094 155.796875 275.761719 157.300781 C 272.632812 158.445312 268.878906 160.667969 266.632812 162.703125 C 262.121094 166.800781 259.679688 175.796875 257.527344 183.738281 C 255.097656 192.683594 252.992188 200.441406 248.378906 200.441406 C 248.261719 200.441406 248.144531 200.4375 248.023438 200.429688 C 245.347656 200.207031 241.109375 196.542969 235.429688 189.542969 C 232.242188 185.613281 226.984375 180.84375 225.664062 179.65625 L 215.4375 184.8125 C 218.179688 189.515625 220.382812 193.949219 222.160156 198.351562 C 225.949219 207.75 232.359375 216.394531 241.207031 224.039062 C 243.816406 226.296875 247.5 226.761719 250.589844 225.222656 C 256.246094 222.40625 264.007812 218.214844 268.867188 214.261719 C 268.980469 214.167969 269.117188 214.121094 269.257812 214.121094 Z M 269.339844 246.996094 C 263.851562 246.996094 260.816406 244.308594 259.207031 241.914062 C 257.96875 240.078125 258.414062 237.554688 260.199219 236.289062 C 261.625 235.277344 263.066406 233.992188 264.480469 232.460938 C 268.625 227.988281 270.277344 221.683594 268.902344 215.808594 C 263.9375 219.652344 256.574219 223.621094 251.140625 226.328125 C 247.601562 228.085938 243.386719 227.554688 240.402344 224.972656 C 231.402344 217.195312 224.882812 208.394531 221.015625 198.8125 C 219.191406 194.289062 216.910156 189.730469 214.042969 184.871094 C 213.953125 184.726562 213.933594 184.550781 213.980469 184.386719 C 214.03125 184.222656 214.144531 184.085938 214.296875 184.007812 L 225.480469 178.371094 C 225.707031 178.257812 225.976562 178.289062 226.164062 178.457031 C 226.230469 178.515625 232.667969 184.183594 236.386719 188.765625 C 241.691406 195.308594 245.863281 199.011719 248.125 199.203125 C 248.203125 199.207031 248.277344 199.210938 248.351562 199.210938 C 252.050781 199.210938 254.132812 191.535156 256.335938 183.414062 C 258.535156 175.3125 261.027344 166.128906 265.804688 161.792969 C 268.191406 159.625 272.023438 157.355469 275.339844 156.144531 C 279.480469 154.628906 282.621094 153.746094 286.316406 153.746094 C 286.375 153.746094 286.4375 153.746094 286.5 153.746094 L 299.238281 154.226562 C 300.660156 154.28125 301.992188 154.511719 303.207031 154.910156 C 317.871094 159.746094 318.636719 183.714844 318.660156 184.734375 L 319.953125 240.417969 C 319.988281 241.96875 319.410156 243.429688 318.324219 244.527344 C 317.265625 245.605469 315.855469 246.195312 314.351562 246.195312 C 314.335938 246.195312 314.320312 246.195312 314.304688 246.195312 C 304.183594 246.105469 279.730469 246.003906 271.261719 246.890625 C 270.589844 246.960938 269.949219 246.996094 269.339844 246.996094 "/><path style=" stroke:none;fill-rule:nonzero;fill:#000000;fill-opacity:1;" d="M 269.09375 215.484375 C 268.910156 215.484375 268.730469 215.402344 268.609375 215.246094 C 268.398438 214.980469 268.445312 214.589844 268.714844 214.382812 C 270.152344 213.257812 274.523438 209.203125 276.820312 205.839844 C 277.011719 205.5625 277.394531 205.488281 277.675781 205.679688 C 277.957031 205.875 278.03125 206.257812 277.839844 206.539062 C 275.464844 210.011719 270.953125 214.191406 269.472656 215.351562 C 269.359375 215.441406 269.226562 215.484375 269.09375 215.484375 "/><path style=" stroke:none;fill-rule:nonzero;fill:#ffffff;fill-opacity:1;" d="M 224.359375 179.234375 L 222.652344 169.992188 C 222.652344 169.992188 221.253906 162.941406 219.542969 162 C 218.285156 161.3125 217.449219 163.925781 217.714844 167.230469 C 217.757812 167.777344 217.011719 167.976562 216.785156 167.472656 C 215.894531 165.507812 214.964844 163.203125 214.882812 162 C 214.726562 159.652344 214.261719 154.796875 212.085938 155.265625 C 209.914062 155.734375 206.027344 163.253906 208.980469 169.679688 C 211.933594 176.101562 218.769531 182.054688 218.769531 182.054688 L 224.359375 179.234375 "/><path style=" stroke:none;fill-rule:nonzero;fill:#000000;fill-opacity:1;" d="M 212.375 155.851562 C 212.324219 155.851562 212.273438 155.855469 212.21875 155.867188 C 211.71875 155.976562 210.804688 156.851562 209.96875 158.515625 C 208.601562 161.257812 207.765625 165.5625 209.542969 169.421875 C 212.050781 174.878906 217.515625 180.078125 218.867188 181.3125 L 223.667969 178.890625 L 222.046875 170.101562 C 221.488281 167.300781 220.25 163.09375 219.246094 162.542969 C 219.15625 162.492188 219.132812 162.503906 219.097656 162.527344 C 218.644531 162.820312 218.121094 164.601562 218.328125 167.179688 C 218.375 167.726562 218.03125 168.207031 217.503906 168.339844 C 216.972656 168.480469 216.449219 168.226562 216.226562 167.730469 C 214.996094 165.023438 214.339844 163.109375 214.269531 162.042969 C 213.988281 157.773438 213.28125 156.390625 212.742188 155.984375 C 212.621094 155.890625 212.507812 155.851562 212.375 155.851562 Z M 218.769531 182.667969 C 218.621094 182.667969 218.476562 182.617188 218.363281 182.515625 C 218.078125 182.269531 211.394531 176.402344 208.421875 169.933594 C 206.464844 165.679688 207.371094 160.960938 208.867188 157.964844 C 209.792969 156.117188 210.949219 154.882812 211.957031 154.664062 C 212.503906 154.542969 213.035156 154.660156 213.484375 155 C 214.597656 155.839844 215.238281 158.054688 215.5 161.960938 C 215.550781 162.777344 216.101562 164.398438 217.0625 166.578125 C 216.992188 164.546875 217.304688 162.21875 218.429688 161.492188 C 218.863281 161.210938 219.363281 161.199219 219.839844 161.460938 C 221.707031 162.488281 223.011719 168.644531 223.257812 169.871094 L 224.964844 179.121094 C 225.015625 179.390625 224.882812 179.660156 224.636719 179.785156 L 219.046875 182.601562 C 218.957031 182.644531 218.863281 182.667969 218.769531 182.667969 "/><path style=" stroke:none;fill-rule:nonzero;fill:#ffffff;fill-opacity:1;" d="M 276.1875 124.492188 C 276.1875 124.492188 274.164062 127.597656 274.066406 130.144531 C 274.042969 130.820312 273.785156 132.976562 272.152344 135.347656 C 271.992188 135.578125 272.03125 135.886719 272.246094 136.070312 L 273.847656 137.464844 C 273.957031 137.5625 274.019531 137.695312 274.023438 137.84375 C 274.039062 138.738281 274.519531 143.300781 274.632812 143.917969 C 274.765625 144.632812 275.351562 145.261719 275.636719 145.414062 C 276.398438 145.8125 279.675781 145.359375 279.675781 145.359375 C 279.675781 145.359375 280.144531 144.195312 281.921875 148.839844 C 283.839844 153.855469 280 155.800781 280 155.800781 C 278.554688 156.574219 278.785156 158.011719 280.359375 158.492188 C 285.792969 160.15625 296.34375 161.953125 302.472656 157.332031 C 303.621094 156.464844 303.148438 155.476562 302.148438 155.324219 C 289.019531 153.332031 294.308594 136.769531 294.003906 136.695312 C 293.226562 136.496094 288.714844 131.851562 286.082031 130.546875 C 284.292969 129.652344 282.144531 130.996094 280.683594 129.636719 L 276.1875 124.492188 "/><path style=" stroke:none;fill-rule:nonzero;fill:#000000;fill-opacity:1;" d="M 273.441406 137.929688 L 273.445312 137.929688 Z M 280.246094 145.585938 C 280.246094 145.585938 280.246094 145.585938 280.246094 145.589844 C 280.246094 145.585938 280.246094 145.585938 280.246094 145.585938 Z M 279.863281 144.613281 C 279.867188 144.613281 279.867188 144.613281 279.871094 144.613281 C 280.402344 144.617188 281.085938 144.929688 282.496094 148.617188 C 284.589844 154.089844 280.320312 156.328125 280.277344 156.351562 C 279.863281 156.570312 279.628906 156.871094 279.65625 157.148438 C 279.6875 157.457031 280.023438 157.746094 280.542969 157.90625 C 282.933594 158.636719 295.226562 162.027344 302.101562 156.839844 C 302.457031 156.570312 302.550781 156.335938 302.519531 156.21875 C 302.492188 156.109375 302.335938 155.976562 302.054688 155.933594 C 298.8125 155.441406 296.359375 154.042969 294.761719 151.777344 C 291.414062 147.035156 292.820312 139.789062 293.28125 137.410156 C 293.304688 137.285156 293.332031 137.152344 293.351562 137.039062 C 292.917969 136.746094 292.265625 136.1875 291.132812 135.199219 C 289.511719 133.777344 287.285156 131.832031 285.808594 131.097656 C 285.144531 130.765625 284.375 130.8125 283.5625 130.867188 C 282.480469 130.933594 281.257812 131.007812 280.261719 130.085938 C 280.246094 130.070312 280.230469 130.054688 280.21875 130.039062 L 276.285156 125.539062 C 275.707031 126.566406 274.746094 128.519531 274.683594 130.167969 C 274.65625 130.808594 274.441406 133.082031 272.695312 135.644531 L 274.253906 137 C 274.496094 137.210938 274.636719 137.515625 274.640625 137.832031 C 274.65625 138.71875 275.136719 143.25 275.238281 143.804688 C 275.335938 144.328125 275.796875 144.796875 275.925781 144.867188 C 276.234375 145.023438 277.816406 144.980469 279.375 144.777344 C 279.503906 144.679688 279.671875 144.613281 279.863281 144.613281 Z M 291.808594 160.890625 C 286.519531 160.890625 281.625 159.523438 280.179688 159.082031 C 279.164062 158.773438 278.507812 158.09375 278.429688 157.269531 C 278.351562 156.480469 278.832031 155.730469 279.707031 155.257812 C 279.855469 155.183594 283.035156 153.472656 281.347656 149.058594 C 280.546875 146.972656 280.070312 146.214844 279.851562 145.949219 C 279.820312 145.957031 279.792969 145.964844 279.761719 145.96875 C 278.714844 146.113281 276.199219 146.402344 275.351562 145.957031 C 274.921875 145.730469 274.203125 144.960938 274.027344 144.03125 C 273.910156 143.40625 273.441406 138.972656 273.410156 137.902344 L 271.839844 136.535156 C 271.394531 136.148438 271.308594 135.488281 271.644531 135 C 273.277344 132.625 273.433594 130.519531 273.449219 130.125 C 273.554688 127.433594 275.585938 124.289062 275.671875 124.15625 C 275.777344 123.996094 275.949219 123.894531 276.144531 123.878906 C 276.335938 123.859375 276.523438 123.941406 276.652344 124.089844 L 281.121094 129.203125 C 281.726562 129.746094 282.542969 129.695312 283.484375 129.636719 C 284.382812 129.578125 285.398438 129.515625 286.359375 129.992188 C 287.976562 130.796875 290.179688 132.726562 291.949219 134.273438 C 292.867188 135.078125 293.910156 135.992188 294.183594 136.105469 C 294.761719 136.25 294.664062 136.742188 294.488281 137.648438 C 294.050781 139.898438 292.722656 146.753906 295.765625 151.066406 C 297.164062 153.046875 299.339844 154.273438 302.242188 154.714844 C 302.992188 154.828125 303.554688 155.289062 303.714844 155.914062 C 303.792969 156.234375 303.867188 157.046875 302.84375 157.824219 C 299.742188 160.164062 295.667969 160.890625 291.808594 160.890625 "/><path style=" stroke:none;fill-rule:nonzero;fill:#000000;fill-opacity:1;" d="M 282.566406 137.035156 C 282.210938 137.035156 281.894531 136.984375 281.640625 136.914062 C 281.3125 136.820312 281.125 136.480469 281.21875 136.152344 C 281.3125 135.828125 281.652344 135.636719 281.976562 135.730469 C 282.191406 135.789062 284.074219 136.226562 284.949219 134.019531 C 285.273438 133.1875 285.210938 132.523438 284.769531 132.191406 C 284.363281 131.882812 283.582031 131.855469 282.878906 132.390625 C 282.738281 132.5 282.433594 132.921875 282.234375 133.25 C 282.0625 133.539062 281.679688 133.632812 281.390625 133.457031 C 281.097656 133.28125 281.003906 132.902344 281.183594 132.613281 C 281.269531 132.464844 281.730469 131.71875 282.128906 131.414062 C 283.195312 130.59375 284.585938 130.511719 285.511719 131.207031 C 286.414062 131.886719 286.632812 133.105469 286.09375 134.46875 C 285.292969 136.5 283.738281 137.035156 282.566406 137.035156 "/><path style=" stroke:none;fill-rule:nonzero;fill:#000000;fill-opacity:1;" d="M 272.316406 116.492188 C 273.375 114.675781 274.515625 113.113281 278.046875 112.378906 C 280.464844 111.875 284.4375 113.617188 286.40625 115.65625 C 286.570312 115.828125 286.832031 115.832031 286.964844 115.660156 C 287.375 115.128906 288.355469 113.925781 289.234375 113.808594 C 291.777344 113.480469 294.421875 116.746094 295.367188 118.429688 C 296.054688 119.660156 297.230469 122.445312 297.839844 125.691406 C 297.878906 125.894531 298.066406 126.042969 298.269531 126.019531 C 299.035156 125.9375 300.570312 125.925781 301.949219 126.917969 C 304.402344 128.691406 304.167969 131.328125 304.144531 131.652344 C 303.855469 135.410156 300.066406 138.230469 297.183594 139.765625 C 295.230469 140.8125 294.492188 140.964844 293.339844 141.242188 C 293.273438 141.261719 293.203125 141.257812 293.136719 141.234375 C 292.113281 141.394531 290.378906 141.492188 288.433594 140.84375 C 285.34375 139.8125 285.523438 134.710938 285.523438 134.710938 L 285.898438 133.746094 C 286.125 133.160156 286.152344 132.5 285.90625 131.925781 C 285.160156 130.160156 282.496094 131.519531 282.398438 131.5 C 277.34375 130.511719 275.546875 129.058594 274.617188 128.0625 C 271.296875 124.5 269.757812 120.890625 272.316406 116.492188 "/><path style=" stroke:none;fill-rule:nonzero;fill:#e7f3dd;fill-opacity:1;" d="M 322.542969 186.492188 L 316.914062 186.492188 C 301.910156 186.492188 288.929688 197.027344 285.722656 211.804688 L 279.175781 241.992188 C 277.644531 249.054688 271.441406 254.089844 264.269531 254.089844 L 252.441406 254.089844 C 246.257812 254.089844 241.246094 259.144531 241.246094 265.378906 C 241.246094 271.613281 246.257812 276.667969 252.441406 276.667969 L 271.652344 276.667969 L 271.644531 276.71875 L 305.445312 276.71875 C 317.273438 276.71875 327.507812 268.414062 330.035156 256.761719 L 340.417969 208.886719 C 342.914062 197.378906 334.226562 186.492188 322.542969 186.492188 "/><path style=" stroke:none;fill-rule:nonzero;fill:#000000;fill-opacity:1;" d="M 304.972656 277.335938 L 271.171875 277.335938 C 270.832031 277.335938 270.554688 277.058594 270.554688 276.71875 C 270.554688 276.378906 270.832031 276.105469 271.171875 276.105469 L 304.972656 276.105469 C 316.425781 276.105469 326.511719 267.914062 328.960938 256.632812 L 339.347656 208.757812 C 339.417969 208.425781 339.742188 208.210938 340.078125 208.285156 C 340.410156 208.355469 340.621094 208.6875 340.550781 209.019531 L 330.164062 256.894531 C 328.910156 262.664062 325.707031 267.882812 321.144531 271.589844 C 316.578125 275.292969 310.835938 277.335938 304.972656 277.335938 "/><path style=" stroke:none;fill-rule:nonzero;fill:#000000;fill-opacity:1;" d="M 304.972656 277.335938 L 271.171875 277.335938 C 270.832031 277.335938 270.554688 277.058594 270.554688 276.71875 C 270.554688 276.378906 270.832031 276.105469 271.171875 276.105469 L 304.972656 276.105469 C 316.425781 276.105469 326.511719 267.914062 328.960938 256.632812 L 339.347656 208.757812 C 339.417969 208.425781 339.742188 208.210938 340.078125 208.285156 C 340.410156 208.355469 340.621094 208.6875 340.550781 209.019531 L 330.164062 256.894531 C 328.910156 262.664062 325.707031 267.882812 321.144531 271.589844 C 316.578125 275.292969 310.835938 277.335938 304.972656 277.335938 "/><path style=" stroke:none;fill-rule:nonzero;fill:#85b56f;fill-opacity:1;" d="M 171.765625 101.296875 C 171.796875 101.253906 171.847656 101.234375 171.917969 101.246094 C 171.992188 101.257812 172.0625 101.3125 172.089844 101.382812 C 172.121094 101.449219 172.105469 101.511719 172.070312 101.550781 L 171.320312 102.402344 C 170.003906 104.976562 169.601562 108.113281 170.386719 111.464844 C 172.203125 119.234375 180.234375 125.417969 188.25 125.953125 L 187.445312 119.78125 C 187.4375 119.488281 187.683594 119.28125 187.683594 119.28125 L 188.398438 118.613281 L 201.695312 129.8125 C 201.996094 130.074219 202.046875 130.484375 201.808594 130.707031 L 191.167969 140.496094 C 190.804688 140.828125 190.109375 140.507812 190.042969 139.980469 L 189.320312 134.335938 C 179.730469 132.769531 171.011719 125.097656 168.800781 115.628906 C 167.75 111.121094 168.335938 106.917969 170.175781 103.507812 C 170.578125 102.761719 171.070312 102.074219 171.632812 101.441406 L 171.765625 101.296875 "/><path style=" stroke:none;fill-rule:nonzero;fill:#ffffff;fill-opacity:1;" d="M 171.976562 101.988281 C 172.003906 101.957031 172.042969 101.9375 172.089844 101.933594 C 172.191406 101.929688 172.292969 102.007812 172.316406 102.105469 C 172.328125 102.160156 172.3125 102.207031 172.28125 102.242188 L 172.285156 102.25 C 170.96875 104.820312 170.570312 107.960938 171.355469 111.308594 C 173.167969 119.082031 181.199219 125.265625 189.214844 125.796875 L 188.441406 119.757812 C 188.375 119.230469 189 119 189.453125 119.382812 L 202.144531 130.136719 C 202.445312 130.398438 202.5 130.808594 202.257812 131.03125 L 192.132812 140.339844 C 191.773438 140.671875 191.078125 140.355469 191.011719 139.828125 L 190.289062 134.179688 C 180.695312 132.613281 171.980469 124.941406 169.769531 115.472656 C 168.570312 110.34375 169.496094 105.605469 171.976562 101.988281 "/><path style=" stroke:none;fill-rule:nonzero;fill:#85b56f;fill-opacity:1;" d="M 171.828125 101.824219 Z M 170.363281 107.035156 C 169.703125 109.621094 169.695312 112.449219 170.367188 115.335938 C 172.476562 124.351562 180.894531 132.019531 190.386719 133.570312 C 190.65625 133.613281 190.863281 133.828125 190.898438 134.101562 L 191.621094 139.746094 C 191.628906 139.792969 191.699219 139.84375 191.75 139.855469 L 201.773438 130.636719 C 201.769531 130.628906 201.757812 130.621094 201.746094 130.609375 L 189.078125 119.871094 L 189.828125 125.71875 C 189.851562 125.902344 189.789062 126.085938 189.664062 126.222656 C 189.539062 126.351562 189.359375 126.425781 189.175781 126.414062 C 180.671875 125.847656 172.582031 119.273438 170.753906 111.449219 C 170.402344 109.945312 170.273438 108.464844 170.363281 107.035156 Z M 191.769531 141.09375 C 191.621094 141.09375 191.464844 141.0625 191.3125 141.007812 C 190.820312 140.828125 190.460938 140.394531 190.398438 139.902344 L 189.734375 134.707031 C 179.957031 132.914062 171.351562 124.953125 169.167969 115.613281 C 167.976562 110.503906 168.792969 105.542969 171.46875 101.640625 C 171.480469 101.621094 171.492188 101.605469 171.507812 101.589844 C 171.648438 101.425781 171.851562 101.328125 172.070312 101.320312 C 172.460938 101.296875 172.824219 101.582031 172.914062 101.96875 C 172.957031 102.148438 172.933594 102.335938 172.851562 102.496094 C 172.847656 102.507812 172.839844 102.519531 172.835938 102.527344 C 171.535156 105.078125 171.226562 108.066406 171.953125 111.167969 C 173.613281 118.265625 180.796875 124.265625 188.507812 125.117188 L 187.832031 119.835938 C 187.773438 119.367188 187.984375 118.9375 188.390625 118.71875 C 188.847656 118.46875 189.421875 118.546875 189.851562 118.910156 L 202.542969 129.667969 C 202.839844 129.925781 203.019531 130.28125 203.027344 130.648438 C 203.035156 130.972656 202.910156 131.269531 202.675781 131.484375 L 192.550781 140.792969 C 192.335938 140.988281 192.0625 141.09375 191.769531 141.09375 "/><path style=" stroke:none;fill-rule:nonzero;fill:#85b56f;fill-opacity:1;" d="M 256.382812 80.039062 C 256.355469 80.082031 256.300781 80.101562 256.238281 80.09375 C 256.160156 80.082031 256.085938 80.03125 256.054688 79.960938 C 256.027344 79.894531 256.039062 79.835938 256.074219 79.792969 L 256.804688 78.921875 C 258.050781 76.316406 258.375 73.167969 257.507812 69.839844 C 255.496094 62.117188 247.316406 56.136719 239.285156 55.804688 L 240.246094 61.953125 C 240.257812 62.246094 240.019531 62.460938 240.019531 62.460938 L 239.320312 63.144531 L 225.75 52.28125 C 225.4375 52.03125 225.375 51.621094 225.613281 51.390625 L 236.003906 41.339844 C 236.359375 41 237.058594 41.300781 237.140625 41.828125 L 238.003906 47.453125 C 247.632812 48.777344 256.539062 56.226562 258.988281 65.636719 C 260.152344 70.113281 259.671875 74.332031 257.917969 77.789062 C 257.535156 78.542969 257.058594 79.246094 256.511719 79.890625 L 256.382812 80.039062 "/><path style=" stroke:none;fill-rule:nonzero;fill:#ffffff;fill-opacity:1;" d="M 256.15625 79.355469 C 256.128906 79.386719 256.089844 79.40625 256.042969 79.410156 C 255.945312 79.414062 255.839844 79.339844 255.816406 79.242188 C 255.800781 79.1875 255.8125 79.140625 255.84375 79.105469 L 255.839844 79.101562 C 257.089844 76.496094 257.410156 73.347656 256.546875 70.019531 C 254.535156 62.296875 246.351562 56.316406 238.324219 55.984375 L 239.246094 62 C 239.328125 62.527344 238.710938 62.773438 238.25 62.402344 L 225.289062 51.96875 C 224.980469 51.71875 224.917969 51.308594 225.152344 51.078125 L 235.042969 41.519531 C 235.394531 41.179688 236.09375 41.480469 236.175781 42.003906 L 237.039062 47.632812 C 246.667969 48.957031 255.574219 56.40625 258.023438 65.816406 C 259.351562 70.914062 258.546875 75.675781 256.15625 79.355469 "/><path style=" stroke:none;fill-rule:nonzero;fill:#85b56f;fill-opacity:1;" d="M 238.324219 55.367188 C 238.332031 55.367188 238.339844 55.367188 238.347656 55.367188 C 246.863281 55.71875 255.117188 62.089844 257.140625 69.863281 C 257.53125 71.359375 257.695312 72.835938 257.640625 74.265625 C 258.238281 71.667969 258.175781 68.839844 257.429688 65.972656 C 255.09375 57.011719 246.488281 49.554688 236.957031 48.242188 C 236.6875 48.207031 236.472656 47.996094 236.433594 47.726562 L 235.566406 42.097656 C 235.5625 42.054688 235.488281 42.003906 235.4375 41.992188 L 225.648438 51.457031 C 225.65625 51.46875 225.664062 51.480469 225.675781 51.488281 L 238.609375 61.902344 L 237.714844 56.078125 C 237.6875 55.894531 237.742188 55.710938 237.863281 55.574219 C 237.980469 55.441406 238.148438 55.367188 238.324219 55.367188 Z M 256.15625 79.355469 L 256.160156 79.355469 Z M 256.308594 79.511719 Z M 256.035156 80.023438 C 255.660156 80.023438 255.316406 79.765625 255.21875 79.398438 C 255.171875 79.21875 255.191406 79.027344 255.269531 78.867188 C 255.273438 78.855469 255.28125 78.847656 255.285156 78.835938 C 256.523438 76.253906 256.75 73.261719 255.949219 70.175781 C 254.113281 63.121094 246.777344 57.304688 239.046875 56.648438 L 239.855469 61.90625 C 239.929688 62.378906 239.726562 62.808594 239.324219 63.042969 C 238.878906 63.300781 238.300781 63.238281 237.863281 62.882812 L 224.902344 52.449219 C 224.597656 52.203125 224.410156 51.851562 224.394531 51.484375 C 224.378906 51.15625 224.496094 50.855469 224.722656 50.636719 L 234.613281 41.078125 C 234.933594 40.769531 235.394531 40.675781 235.847656 40.832031 C 236.34375 40.996094 236.710938 41.421875 236.785156 41.910156 L 237.582031 47.089844 C 247.402344 48.636719 256.203125 56.378906 258.621094 65.660156 C 259.941406 70.738281 259.25 75.722656 256.671875 79.6875 C 256.660156 79.707031 256.648438 79.726562 256.632812 79.738281 C 256.5 79.90625 256.296875 80.011719 256.082031 80.023438 C 256.066406 80.023438 256.046875 80.023438 256.035156 80.023438 "/><path style=" stroke:none;fill-rule:nonzero;fill:#e7f3dd;fill-opacity:1;" d="M 140.855469 85.191406 C 140.316406 78.238281 140.851562 68.335938 146.824219 60.070312 C 163.335938 37.210938 211.542969 40.5625 220.90625 59.222656 C 225.664062 68.6875 220.519531 82.3125 212.835938 89.8125 C 201.476562 100.898438 182.316406 100.796875 170.621094 94.128906 C 159.484375 87.78125 156.023438 76.003906 148.953125 77.101562 C 145.023438 77.710938 142.40625 81.921875 140.855469 85.191406 "/><path style=" stroke:none;fill-rule:nonzero;fill:#85b56f;fill-opacity:1;" d="M 149.890625 76.410156 C 153.53125 76.410156 156.226562 79.527344 159.566406 83.386719 C 162.550781 86.839844 165.933594 90.75 170.925781 93.59375 C 182.207031 100.023438 201.273438 100.238281 212.40625 89.371094 C 219.8125 82.140625 224.960938 68.664062 220.355469 59.496094 C 216.417969 51.652344 204.972656 46.054688 190.480469 44.890625 C 176.5625 43.773438 156.902344 47.171875 147.320312 60.433594 C 143.019531 66.390625 141.011719 73.945312 141.34375 82.917969 C 143.527344 79.085938 146.050781 76.925781 148.859375 76.492188 C 149.210938 76.4375 149.554688 76.410156 149.890625 76.410156 Z M 189.089844 99.339844 C 182.328125 99.339844 175.613281 97.683594 170.3125 94.664062 C 165.144531 91.71875 161.53125 87.542969 158.632812 84.191406 C 155.238281 80.265625 152.554688 77.167969 149.046875 77.710938 C 146.207031 78.148438 143.640625 80.753906 141.414062 85.453125 C 141.292969 85.707031 141.019531 85.847656 140.742188 85.796875 C 140.46875 85.746094 140.261719 85.515625 140.242188 85.238281 C 139.445312 74.988281 141.492188 66.398438 146.324219 59.710938 C 150.589844 53.800781 157.296875 49.210938 165.707031 46.433594 C 173.207031 43.960938 182.039062 42.976562 190.578125 43.664062 C 205.496094 44.863281 217.328125 50.714844 221.457031 58.941406 C 226.375 68.734375 221.15625 82.554688 213.265625 90.253906 C 207.921875 95.472656 200.332031 98.664062 191.898438 99.246094 C 190.964844 99.308594 190.023438 99.339844 189.089844 99.339844 "/><path style=" stroke:none;fill-rule:nonzero;fill:#ffffff;fill-opacity:1;" d="M 204.53125 66.535156 L 163.945312 66.535156 C 163.601562 66.535156 163.328125 66.261719 163.328125 65.921875 C 163.328125 65.578125 163.601562 65.304688 163.945312 65.304688 L 204.53125 65.304688 C 204.871094 65.304688 205.148438 65.578125 205.148438 65.921875 C 205.148438 66.261719 204.871094 66.535156 204.53125 66.535156 "/><path style=" stroke:none;fill-rule:nonzero;fill:#ffffff;fill-opacity:1;" d="M 193.734375 73.664062 L 173.3125 73.664062 C 172.972656 73.664062 172.699219 73.386719 172.699219 73.046875 C 172.699219 72.707031 172.972656 72.429688 173.3125 72.429688 L 193.734375 72.429688 C 194.074219 72.429688 194.351562 72.707031 194.351562 73.046875 C 194.351562 73.386719 194.074219 73.664062 193.734375 73.664062 "/><path style=" stroke:none;fill-rule:nonzero;fill:#ffffff;fill-opacity:1;" d="M 247.28125 129.535156 C 248.3125 128.085938 259.949219 111.152344 252.640625 91.835938 C 247.511719 78.277344 234.464844 67.292969 219.316406 66.699219 C 216.757812 66.597656 200.640625 65.972656 191.992188 78.832031 C 186.167969 87.496094 185.527344 99.597656 191.191406 108.398438 C 197.917969 118.863281 210.769531 120.355469 212.675781 120.546875 C 226.027344 121.886719 233.382812 113.335938 240.660156 117.464844 C 245.113281 119.992188 246.652344 125.628906 247.28125 129.535156 "/><path style=" stroke:none;fill-rule:nonzero;fill:#000000;fill-opacity:1;" d="M 236.300781 115.714844 C 237.882812 115.714844 239.425781 116.054688 240.964844 116.929688 C 244.257812 118.796875 246.492188 122.492188 247.613281 127.925781 C 250.464844 123.40625 258.347656 108.664062 252.066406 92.054688 C 246.675781 77.8125 233.507812 67.871094 219.289062 67.316406 C 213.78125 67.105469 200.136719 67.828125 192.503906 79.175781 C 186.671875 87.847656 186.347656 99.726562 191.710938 108.066406 C 198.089844 117.992188 210.347656 119.695312 212.742188 119.933594 C 219.066406 120.570312 223.988281 118.949219 228.324219 117.515625 C 231.175781 116.574219 233.785156 115.714844 236.300781 115.714844 Z M 247.28125 130.152344 C 247.234375 130.152344 247.1875 130.148438 247.140625 130.136719 C 246.898438 130.078125 246.710938 129.878906 246.671875 129.632812 C 245.730469 123.757812 243.605469 119.84375 240.355469 118 C 236.839844 116.003906 233.25 117.1875 228.710938 118.6875 C 224.257812 120.15625 219.207031 121.824219 212.617188 121.160156 C 209.117188 120.808594 197.195312 118.871094 190.671875 108.734375 C 185.050781 99.992188 185.382812 87.554688 191.480469 78.488281 C 199.460938 66.625 213.625 65.863281 219.339844 66.082031 C 226.71875 66.371094 233.902344 69.082031 240.113281 73.917969 C 245.972656 78.480469 250.625 84.769531 253.21875 91.621094 C 260.574219 111.074219 249.113281 128.023438 247.78125 129.890625 C 247.667969 130.058594 247.476562 130.152344 247.28125 130.152344 "/><path style=" stroke:none;fill-rule:nonzero;fill:#85b56f;fill-opacity:1;" d="M 222.898438 92.492188 C 222.8125 92.71875 222.519531 92.863281 222.15625 92.867188 C 220.898438 96.214844 219.003906 99.914062 217.0625 102.253906 C 216.484375 101.753906 215.347656 101.003906 214.640625 100.621094 C 216.476562 98.53125 218.226562 94.910156 219.351562 91.5625 Z M 234.871094 84.617188 C 234.855469 84.757812 234.078125 88.058594 232.789062 91.53125 L 230.816406 91.1875 C 231.988281 94.160156 232.832031 98.007812 232.984375 100.617188 L 229.695312 101.863281 C 229.648438 99.242188 228.824219 95.222656 227.726562 92.238281 L 230.710938 91.160156 L 230.070312 91.054688 C 230.316406 90.175781 230.609375 88.960938 230.933594 87.714844 L 227.5625 87.738281 L 225.679688 102.421875 C 225.347656 105.03125 224.640625 106.261719 219.816406 106.378906 C 219.777344 105.382812 219.472656 103.855469 219.117188 102.953125 C 220.28125 102.960938 221.476562 102.933594 221.867188 102.925781 C 222.226562 102.917969 222.351562 102.804688 222.398438 102.433594 L 224.277344 87.765625 L 221.308594 87.785156 C 220.164062 89.789062 218.929688 91.59375 217.628906 93.035156 C 217.121094 92.414062 216.046875 91.398438 215.355469 90.890625 C 217.753906 88.355469 220.027344 83.886719 221.503906 79.546875 L 225.25 80.597656 C 225.140625 80.824219 224.867188 80.996094 224.457031 80.96875 C 223.996094 82.195312 223.476562 83.417969 222.910156 84.617188 L 233.109375 84.570312 Z M 219.238281 80.691406 C 219.121094 80.949219 218.824219 81.089844 218.40625 81.0625 C 217.398438 83.238281 216.25 85.445312 215.023438 87.542969 L 216.058594 87.792969 C 215.96875 88.082031 215.71875 88.28125 215.230469 88.34375 L 212.90625 106.511719 L 209.542969 106.589844 L 211.257812 93.199219 C 210.511719 94.183594 209.742188 95.113281 208.988281 95.925781 C 208.632812 95.15625 207.832031 93.644531 207.332031 92.902344 C 210.242188 89.878906 213.410156 84.542969 215.527344 79.460938 L 219.238281 80.691406 "/><path style=" stroke:none;fill-rule:nonzero;fill:#ffffff;fill-opacity:1;" d="M 82.617188 61.007812 C 82.414062 61.007812 82.214844 60.910156 82.097656 60.722656 C 81.914062 60.4375 81.996094 60.054688 82.28125 59.871094 C 82.664062 59.628906 120.210938 35.84375 159.203125 35.84375 C 159.8125 35.84375 160.421875 35.851562 161.035156 35.863281 C 161.375 35.871094 161.644531 36.152344 161.636719 36.492188 C 161.632812 36.828125 161.347656 37.097656 161.007812 37.09375 C 121.753906 36.335938 83.332031 60.664062 82.945312 60.910156 C 82.84375 60.976562 82.730469 61.007812 82.617188 61.007812 "/><path style=" stroke:none;fill-rule:nonzero;fill:#ffffff;fill-opacity:1;" d="M 76.605469 72.007812 C 76.421875 72.007812 76.242188 71.929688 76.121094 71.777344 C 75.910156 71.511719 75.953125 71.125 76.21875 70.910156 C 76.433594 70.742188 97.96875 53.800781 128.175781 47.140625 C 128.507812 47.066406 128.835938 47.273438 128.910156 47.609375 C 128.980469 47.941406 128.773438 48.269531 128.441406 48.34375 C 98.507812 54.945312 77.199219 71.707031 76.988281 71.875 C 76.875 71.964844 76.738281 72.007812 76.605469 72.007812 "/><path style=" stroke:none;fill-rule:nonzero;fill:#000000;fill-opacity:1;" d="M 328.617188 141.59375 C 328.417969 141.59375 328.226562 141.5 328.105469 141.324219 C 327.914062 141.042969 327.988281 140.660156 328.269531 140.46875 L 331.015625 138.601562 C 331.296875 138.410156 331.679688 138.480469 331.871094 138.765625 C 332.066406 139.046875 331.988281 139.429688 331.710938 139.621094 L 328.960938 141.484375 C 328.855469 141.558594 328.734375 141.59375 328.617188 141.59375 "/><path style=" stroke:none;fill-rule:nonzero;fill:#000000;fill-opacity:1;" d="M 322.640625 145.65625 C 322.445312 145.65625 322.25 145.558594 322.132812 145.382812 C 321.9375 145.105469 322.011719 144.722656 322.292969 144.527344 L 325.074219 142.640625 C 325.355469 142.449219 325.738281 142.519531 325.929688 142.804688 C 326.121094 143.085938 326.046875 143.46875 325.765625 143.660156 L 322.988281 145.546875 C 322.878906 145.621094 322.757812 145.65625 322.640625 145.65625 "/><path style=" stroke:none;fill-rule:nonzero;fill:#000000;fill-opacity:1;" d="M 325.703125 140.851562 C 325.507812 140.851562 325.3125 140.757812 325.191406 140.582031 L 323.480469 138.050781 C 323.289062 137.765625 323.363281 137.382812 323.644531 137.191406 C 323.925781 137.003906 324.308594 137.074219 324.5 137.359375 L 326.214844 139.890625 C 326.402344 140.171875 326.332031 140.554688 326.046875 140.746094 C 325.941406 140.816406 325.824219 140.851562 325.703125 140.851562 "/><path style=" stroke:none;fill-rule:nonzero;fill:#000000;fill-opacity:1;" d="M 329.9375 147.113281 C 329.738281 147.113281 329.546875 147.019531 329.425781 146.84375 L 327.636719 144.191406 C 327.441406 143.910156 327.519531 143.527344 327.800781 143.335938 C 328.082031 143.144531 328.464844 143.21875 328.65625 143.5 L 330.445312 146.152344 C 330.640625 146.433594 330.566406 146.816406 330.28125 147.007812 C 330.175781 147.078125 330.058594 147.113281 329.9375 147.113281 "/><path style=" stroke:none;fill-rule:nonzero;fill:#ffffff;fill-opacity:1;" d="M 312.515625 115.804688 C 312.878906 114.058594 314.605469 112.9375 316.371094 113.304688 C 318.140625 113.667969 319.28125 115.378906 318.917969 117.125 C 318.554688 118.871094 316.824219 119.988281 315.058594 119.625 C 313.289062 119.257812 312.148438 117.546875 312.515625 115.804688 "/><path style=" stroke:none;fill-rule:nonzero;fill:#e7f3dd;fill-opacity:1;" d="M 296.722656 93.902344 C 296.957031 92.78125 298.066406 92.0625 299.203125 92.296875 C 300.335938 92.53125 301.070312 93.628906 300.835938 94.75 C 300.601562 95.871094 299.492188 96.589844 298.355469 96.355469 C 297.222656 96.121094 296.492188 95.023438 296.722656 93.902344 "/><path style=" stroke:none;fill-rule:nonzero;fill:#000000;fill-opacity:1;" d="M 159.820312 194.03125 C 159.476562 194.03125 159.132812 194.082031 158.792969 194.195312 C 157.097656 194.757812 156.148438 196.574219 156.675781 198.25 C 156.929688 199.046875 157.476562 199.695312 158.21875 200.074219 C 158.984375 200.46875 159.855469 200.53125 160.683594 200.257812 C 162.382812 199.699219 163.332031 197.878906 162.804688 196.207031 C 162.550781 195.40625 162.003906 194.757812 161.261719 194.378906 C 160.808594 194.144531 160.316406 194.03125 159.820312 194.03125 Z M 159.65625 201.65625 C 158.96875 201.65625 158.285156 201.496094 157.65625 201.175781 C 156.617188 200.640625 155.851562 199.734375 155.5 198.621094 C 154.773438 196.304688 156.074219 193.796875 158.40625 193.027344 C 159.550781 192.648438 160.765625 192.738281 161.824219 193.28125 C 162.863281 193.8125 163.628906 194.722656 163.980469 195.832031 C 164.707031 198.148438 163.40625 200.65625 161.074219 201.425781 C 160.609375 201.582031 160.128906 201.65625 159.65625 201.65625 "/><path style=" stroke:none;fill-rule:nonzero;fill:#000000;fill-opacity:1;" d="M 166.683594 184.203125 C 166.484375 184.203125 166.285156 184.234375 166.085938 184.300781 C 165.105469 184.625 164.554688 185.675781 164.863281 186.640625 C 165.003906 187.097656 165.320312 187.472656 165.75 187.691406 C 166.1875 187.917969 166.691406 187.953125 167.171875 187.796875 C 168.152344 187.472656 168.703125 186.421875 168.398438 185.453125 C 168.253906 184.996094 167.9375 184.621094 167.511719 184.402344 C 167.25 184.269531 166.96875 184.203125 166.683594 184.203125 Z M 166.578125 189.125 C 166.097656 189.125 165.625 189.011719 165.1875 188.789062 C 164.464844 188.417969 163.929688 187.785156 163.683594 187.011719 C 163.179688 185.40625 164.082031 183.664062 165.699219 183.128906 C 166.496094 182.867188 167.339844 182.929688 168.074219 183.308594 C 168.796875 183.679688 169.328125 184.308594 169.574219 185.082031 C 170.078125 186.691406 169.175781 188.429688 167.558594 188.964844 C 167.238281 189.074219 166.90625 189.125 166.578125 189.125 "/><path style=" stroke:none;fill-rule:nonzero;fill:#ffffff;fill-opacity:1;" d="M 175.570312 177.449219 L 176.375 183.21875 L 181.058594 179.347656 Z M 175.917969 185.011719 C 175.84375 185.011719 175.769531 185 175.695312 184.972656 C 175.488281 184.890625 175.339844 184.703125 175.308594 184.480469 L 174.210938 176.625 C 174.183594 176.414062 174.265625 176.199219 174.429688 176.066406 C 174.597656 175.925781 174.820312 175.886719 175.023438 175.957031 L 182.496094 178.539062 C 182.710938 178.613281 182.863281 178.792969 182.902344 179.011719 C 182.941406 179.230469 182.863281 179.457031 182.691406 179.597656 L 176.3125 184.871094 C 176.199219 184.964844 176.0625 185.011719 175.917969 185.011719 "/><path style=" stroke:none;fill-rule:nonzero;fill:#ffffff;fill-opacity:1;" d="M 170.523438 197.367188 C 170.46875 197.367188 170.414062 197.359375 170.359375 197.347656 C 170.03125 197.257812 169.835938 196.921875 169.925781 196.59375 C 169.964844 196.445312 170.933594 192.988281 174.246094 191.539062 C 177.105469 190.289062 178.855469 188.972656 179.4375 187.628906 C 179.570312 187.316406 179.933594 187.175781 180.246094 187.308594 C 180.558594 187.445312 180.703125 187.808594 180.566406 188.121094 C 179.847656 189.78125 177.941406 191.269531 174.738281 192.667969 C 171.976562 193.878906 171.125 196.886719 171.117188 196.914062 C 171.042969 197.1875 170.792969 197.367188 170.523438 197.367188 "/></g></svg>